<?xml version="1.0" encoding="utf-8"?>
<!-- Generator: Adobe Illustrator 16.0.0, SVG Export Plug-In . SVG Version: 6.00 Build 0)  -->
<!DOCTYPE svg PUBLIC "-//W3C//DTD SVG 1.1//EN" "http://www.w3.org/Graphics/SVG/1.1/DTD/svg11.dtd">
<svg version="1.1" id="Capa_1" xmlns="http://www.w3.org/2000/svg" xmlns:xlink="http://www.w3.org/1999/xlink" x="0px" y="0px"
	 width="548px" height="204px" viewBox="0 0 548 204" enable-background="new 0 0 548 204" xml:space="preserve">
<g>
	<path fill="#CDB87D" d="M264.718,70.878c2.026-1.198,3.922-3.335,5.691-6.415c0.539-0.532,0.273-1.073-0.8-1.616
		c-0.672-0.674-1.208-0.541-1.618,0.394c-0.682,1.205-1.461,2.243-2.341,3.109c-0.881,0.871-1.726,1.703-2.538,2.505
		c-0.404-0.002-0.642,0.198-0.71,0.6c-0.071,0.403,0.027,0.74,0.298,1.009C263.1,71.272,263.771,71.41,264.718,70.878z"/>
	<path fill="#CDB87D" d="M323.295,71.194c2.026-1.198,3.922-3.334,5.69-6.415c0.54-0.532,0.274-1.072-0.798-1.616
		c-0.672-0.674-1.21-0.542-1.618,0.394c-0.683,1.206-1.462,2.243-2.34,3.109c-0.882,0.871-1.727,1.704-2.539,2.505
		c-0.403-0.002-0.641,0.198-0.71,0.6c-0.07,0.403,0.028,0.74,0.299,1.009C321.677,71.588,322.348,71.726,323.295,71.194z"/>
	<path fill="#CDB87D" d="M358.892,62.926c0.537-0.265,1.248-0.931,2.131-2.003c0.88-1.068,1.795-2.237,2.746-3.51
		c0.947-1.269,1.832-2.507,2.646-3.712c0.815-1.204,1.426-2.139,1.833-2.811c0.542-1.07,0.547-1.875,0.013-2.417
		c-0.402-0.27-0.841-0.238-1.313,0.094c-0.476,0.333-0.847,0.7-1.117,1.101c-0.274,0.537-0.815,1.374-1.63,2.509
		c-0.814,1.139-1.663,2.308-2.544,3.512c-0.884,1.204-1.729,2.307-2.542,3.31s-1.423,1.639-1.828,1.904
		c-0.81,0.399-0.95,1.072-0.415,2.013C357.273,63.32,357.945,63.324,358.892,62.926z"/>
	<path fill="#CDB87D" d="M402.637,79.276c-0.277,1.074-0.821,2.513-1.639,4.321c-0.817,1.809-1.333,3.519-1.543,5.129
		c-0.211,1.61,0.05,2.956,0.786,4.032c0.732,1.081,2.448,1.423,5.146,1.035c4.448-0.782,8.965-2.199,13.557-4.257
		c4.588-2.057,9.115-4.616,13.576-7.682c0.674-0.265,0.812-0.801,0.412-1.609c-0.399-0.808-1.073-0.944-2.018-0.414
		c-4.055,2.666-8.445,5.024-13.169,7.079c-4.726,2.058-8.704,3.412-11.94,4.065c-1.485,0.263-2.459,0.188-2.928-0.217
		c-0.47-0.405-0.634-1.077-0.493-2.017c0.137-0.938,0.481-2.079,1.028-3.419c0.544-1.338,1.092-2.814,1.641-4.423
		c0.407-0.668,0.613-1.407,0.618-2.212c0.004-0.806-0.331-1.412-1.001-1.818c-1.881-1.219-4.305-1.097-7.273,0.364
		c-2.972,1.462-6.482,3.323-10.535,5.583c0.409-1.071,0.684-2.111,0.825-3.118c0.138-1.006,0.012-2.247-0.384-3.728
		c-0.268-0.807-0.67-1.177-1.207-1.115c-0.54,0.067-0.946,0.433-1.218,1.102l-0.002,0.403c-0.002,0.403-0.307,0.839-0.914,1.304
		c-0.604,0.469-1.333,0.968-2.189,1.5c-0.011,0.007-0.024,0.015-0.036,0.021c-0.105-0.007-0.191-0.023-0.311-0.023
		c-1.083,0.799-2.77,1.697-5.064,2.691c-2.295,0.995-4.69,1.923-7.186,2.782c-2.499,0.862-4.926,1.553-7.283,2.076
		c-2.361,0.525-4.214,0.65-5.557,0.373c0.943-0.531,1.958-1.431,3.044-2.704c1.083-1.269,2.035-2.674,2.851-4.214
		c0.816-1.538,1.329-3.046,1.539-4.523c0.21-1.476-0.086-2.752-0.887-3.832c-0.402-0.405-0.739-0.64-1.007-0.711
		c-0.271-0.066-0.605-0.103-1.01-0.105c-1.482-0.141-3.102,0.455-4.857,1.787c-1.76,1.334-3.216,2.973-4.37,4.911
		c-1.156,1.942-1.84,3.918-2.053,5.932c-0.212,2.013,0.416,3.697,1.893,5.046c-5.535,2.12-9.171,2.1-10.908-0.059
		c-0.537-0.539-0.533-1.344,0.013-2.417c0.542-1.07,1.426-2.208,2.644-3.41c1.219-1.202,2.604-2.369,4.16-3.503
		c1.554-1.13,3.074-2.164,4.563-3.097c0.539-0.532,0.678-1.069,0.413-1.609c0.002-0.403-0.199-0.637-0.603-0.709
		c-0.403-0.067-0.742,0.031-1.012,0.297c-1.216,0.667-2.805,1.665-4.764,2.996c-1.551,1.054-2.938,2.217-4.236,3.439
		c-3.214,1.581-6.429,3.096-9.644,4.543c-3.24,1.461-6.21,2.585-8.906,3.376c-0.81,0.266-1.892,0.562-3.237,0.889
		c-1.351,0.329-2.563,0.49-3.639,0.484c-1.08-0.006-1.816-0.278-2.217-0.818c-0.401-0.538-0.061-1.678,1.028-3.418
		c0.679-1.07,1.356-2.074,2.037-3.011c0.677-0.935,1.758-1.936,3.249-3.004c0.674-0.399,0.778-1.003,0.312-1.811
		c-0.469-0.808-1.105-1.013-1.916-0.615c-1.432,0.768-2.54,1.411-3.344,1.933c-6.181,3.486-11.569,6.219-16.102,8.135
		c-4.859,2.058-8.907,3.477-12.143,4.265c-1.486,0.395-3.204,0.556-5.154,0.476c-1.953-0.077-2.926-0.52-2.922-1.326
		c0.01-1.743,0.656-3.386,1.946-4.924c1.287-1.535,2.672-2.837,4.163-3.905c1.486-1.201,3.276-2.265,5.369-3.194
		c2.093-0.927,3.542-1.189,4.348-0.782c-0.68,0.669-1.32,1.27-1.929,1.803c-0.608,0.535-1.317,1-2.128,1.398
		c-0.679,0.534-0.814,1.103-0.413,1.709c0.4,0.606,0.937,0.711,1.614,0.311c0.673-0.264,1.449-0.729,2.33-1.397
		c0.879-0.666,1.624-1.368,2.234-2.104c0.609-0.732,0.948-1.47,1.021-2.21c0.071-0.736-0.295-1.377-1.099-1.919
		c-1.078-0.409-2.321-0.482-3.737-0.222c-1.415,0.262-2.801,0.689-4.148,1.287c-1.352,0.597-2.633,1.295-3.849,2.095
		c-1.217,0.799-2.164,1.467-2.839,1.999c-0.151,0.128-0.284,0.267-0.431,0.397c-2.692,1.305-5.383,2.575-8.074,3.788
		c-3.24,1.461-6.21,2.584-8.907,3.376c-0.809,0.265-1.891,0.562-3.237,0.889c-1.35,0.329-2.563,0.49-3.639,0.484
		c-1.08-0.006-1.817-0.278-2.218-0.818c-0.401-0.538-0.061-1.678,1.029-3.418c0.678-1.07,1.355-2.074,2.036-3.011
		c0.677-0.935,1.759-1.936,3.248-3.004c0.674-0.399,0.779-1.003,0.312-1.811c-0.468-0.809-1.104-1.013-1.915-0.615
		c-1.488,0.798-2.634,1.465-3.445,1.996c-0.228,0.15-0.439,0.292-0.657,0.437c-0.232,0.047-0.48,0.118-0.76,0.236
		c-1.937,1.364-3.874,2.576-5.809,3.658c-0.341,0.149-0.7,0.302-1.083,0.458c-0.182,0.106-0.318,0.225-0.421,0.352
		c-0.4,0.209-0.799,0.426-1.198,0.622c-2.836,1.395-5.437,2.388-7.794,2.979c-2.36,0.591-4.347,0.782-5.962,0.572
		s-2.691-0.852-3.222-1.93c-0.27-0.27-0.399-0.94-0.393-2.017l0.002-0.403c2.03-1.868,3.857-3.505,5.48-4.906
		c1.624-1.401,3.178-2.834,4.67-4.305c2.165-2.27,4.637-4.809,7.414-7.614c2.773-2.805,5.212-5.542,7.316-8.22
		c2.101-2.674,3.664-5.217,4.688-7.628c1.023-2.412,0.933-4.357-0.271-5.844c-2.148-1.352-4.74-1.165-7.78,0.562
		c-3.04,1.73-6.083,4.298-9.132,7.706c-3.048,3.408-5.865,7.189-8.444,11.336c-2.583,4.15-4.354,7.967-5.314,11.453
		c-0.672-0.674-1.478-1.148-2.416-1.423c-0.943-0.273-1.816-0.413-2.624-0.417c-1.887-0.01-3.979,0.819-6.275,2.484
		c-1.335,0.968-2.542,2-3.65,3.081c-0.068,0.004-0.149,0.032-0.216,0.032c-1.473,0.782-4.248,2.174-8.326,4.18
		c-4.078,2.005-8.666,4.236-13.763,6.686c-5.098,2.452-10.28,4.903-15.547,7.351c-3.528,1.642-6.71,3.038-9.602,4.227l-22.006-0.119
		l-0.009,1.667c3.225,0.28,5.31,0.92,6.258,1.919c0.389,0.411,0.692,1.011,0.918,1.781c-0.853,0.213-1.706,0.426-2.56,0.604
		c-4.47,0.934-8.057,1.282-10.768,1.04c-1.918-0.235-3.271-0.833-4.058-1.796c-0.784-0.96-1.061-2.118-0.829-3.469
		c0.235-1.35,0.892-2.783,1.972-4.298c1.083-1.515,2.533-3.054,4.347-4.624c2.044-1.79,5.389-4.28,10.04-7.466
		c4.649-3.186,9.721-6.369,15.22-9.55c5.496-3.182,11.02-6.025,16.57-8.53c5.547-2.504,10.301-4.026,14.26-4.57
		c0.903,0.005,1.299-0.331,1.192-1.008c-0.11-0.676-0.503-1.017-1.181-1.02c-5.424,0.197-9.999,0.03-13.725-0.496
		c-3.726-0.527-6.772-1.247-9.14-2.162c-2.367-0.914-4.115-1.993-5.236-3.239c-1.123-1.244-1.793-2.601-2.011-4.067
		c-0.324-2.705,0.481-5.658,2.42-8.859c1.938-3.2,4.611-6.452,8.019-9.758c3.407-3.304,7.378-6.551,11.916-9.738
		c4.535-3.186,9.296-6.089,14.284-8.71c4.984-2.619,9.996-4.902,15.035-6.848c5.037-1.942,9.734-3.327,14.089-4.149
		c4.353-0.822,8.196-0.94,11.526-0.36c3.328,0.583,5.777,2.003,7.349,4.264c1.009,1.471,0.968,3.723-0.121,6.759
		c-1.091,3.037-3.397,6.32-6.917,9.849c-3.522,3.53-8.372,7.082-14.548,10.652c-6.178,3.574-13.848,6.574-23.012,9.002
		c-0.339-0.001-0.652,0.166-0.935,0.501c-0.285,0.336-0.316,0.619-0.09,0.844c-0.003,0.565,0.051,0.875,0.165,0.932
		c0.111,0.058,0.28,0.085,0.508,0.086c9.05-2.428,16.892-5.457,23.521-9.084c6.629-3.623,11.93-7.371,15.906-11.235
		c3.974-3.866,6.593-7.57,7.856-11.111c1.261-3.542,1.052-6.387-0.632-8.538c-2.133-2.715-5.089-4.421-8.87-5.118
		c-3.782-0.696-8.021-0.605-12.711,0.27c-4.695,0.878-9.673,2.398-14.938,4.567c-5.266,2.168-10.478,4.704-15.633,7.605
		c-5.158,2.902-10.061,6.058-14.711,9.468c-4.652,3.414-8.68,6.856-12.089,10.328c-3.408,3.475-6.026,6.841-7.85,10.098
		c-1.826,3.259-2.464,6.128-1.911,8.608c0.66,3.272,2.68,5.874,6.059,7.806c3.378,1.935,8.567,3.202,15.57,3.802l2.374,0.013
		c-1.587,0.556-3.681,1.39-6.284,2.5c-2.607,1.114-5.437,2.451-8.496,4.01c-3.059,1.562-6.261,3.291-9.603,5.187
		c-3.344,1.899-6.575,3.825-9.691,5.778c-3.12,1.955-6.011,3.912-8.676,5.867c-2.664,1.958-4.85,3.776-6.554,5.458
		c-3.975,3.81-6.28,7.122-6.917,9.934c-0.635,2.813,0.201,4.902,2.508,6.266c2.309,1.364,5.95,1.835,10.923,1.411
		c2.263-0.192,4.762-0.653,7.473-1.357c0.052,0.627,0.077,1.312,0.073,2.062l-0.211,38.903c-0.02,3.695-0.458,6.058-1.315,7.086
		c-0.856,1.029-3,1.693-6.432,1.995l-0.009,1.666l25.203,0.137l0.009-1.667c-3.605-0.28-5.926-0.86-6.963-1.739
		c-1.036-0.877-1.545-3.002-1.526-6.376l0.088-16.314c0.732,0.004,1.854,0.03,3.364,0.082c1.51,0.053,2.749,0.081,3.716,0.087
		c6.744,0.036,12.367-1.308,16.868-4.033c4.5-2.723,6.769-7.141,6.802-13.253c0.026-4.823-1.976-8.723-6.007-11.698
		c-3.38-2.495-8.041-3.944-13.948-4.376c1.516-0.665,3.077-1.355,4.736-2.102c5.321-2.392,10.588-4.814,15.8-7.266
		c5.208-2.448,9.911-4.733,14.104-6.853c1.197-0.604,2.276-1.159,3.26-1.673c-0.133,0.168-0.266,0.318-0.4,0.494
		c-0.814,1.072-1.426,2.177-1.836,3.313c-0.41,1.14-0.551,2.213-0.421,3.221c0.127,1.007,0.729,1.785,1.806,2.325l0.404,0.002
		c1.073,0.68,2.42,0.753,4.039,0.223c1.619-0.526,3.306-1.291,5.063-2.289c1.754-0.998,3.477-2.097,5.169-3.295
		c1.688-1.2,3.143-2.199,4.359-2.998c0.521,2.69,1.895,4.341,4.114,4.957s4.81,0.564,7.778-0.16c2.964-0.72,6.036-1.912,9.21-3.576
		c1.838-0.962,3.574-1.999,5.256-3.075c0.348-0.201,0.716-0.424,1.126-0.693c-0.813,1.071-1.497,2.343-2.041,3.816
		c-0.548,1.476-0.419,2.751,0.383,3.829c0.933,1.349,2.885,1.797,5.851,1.341c2.963-0.453,6.133-1.277,9.508-2.466
		c3.309-1.169,6.457-2.504,9.446-3.999c-0.043,0.075-0.094,0.146-0.135,0.222c-1.091,2.008-1.505,3.819-1.242,5.431
		c0.525,2.017,2.07,3.067,4.629,3.147c2.556,0.083,4.916-0.14,7.074-0.667c3.236-0.789,7.385-2.241,12.446-4.364
		c2.233-0.936,4.675-2.085,7.265-3.385c0.167-0.028,0.343-0.087,0.531-0.199c0.675-0.399,1.349-0.698,2.025-0.896
		c0.673-0.198,1.62-0.696,2.836-1.495c-0.814,1.071-1.497,2.343-2.041,3.816c-0.547,1.476-0.418,2.751,0.383,3.829
		c0.934,1.349,2.885,1.797,5.851,1.341c2.963-0.453,6.133-1.277,9.507-2.466c3.372-1.19,6.579-2.549,9.618-4.078
		c0.587-0.295,1.114-0.564,1.639-0.832c-0.211,0.443-0.39,0.89-0.532,1.342c-0.549,1.744,0.049,3.359,1.792,4.843
		c1.07,1.083,2.886,1.662,5.445,1.742c2.555,0.083,5.592-1.009,9.107-3.274c1.883,0.413,4.206,0.394,6.97-0.064
		c2.76-0.454,5.527-1.144,8.294-2.07c2.544-0.851,4.934-1.799,7.196-2.824c0.292,0.067,0.613,0.028,0.972-0.153
		c1.187-0.664,2.41-1.328,3.664-1.995c1.252-0.664,2.542-1.462,3.862-2.396c-0.277,1.074-0.718,2.18-1.331,3.316
		c-0.612,1.139-1.663,2.308-3.15,3.508c-1.354,1.202-2.233,2.138-2.642,2.806c-0.544,1.073-0.548,1.743-0.011,2.014
		c0.535,0.273,1.141,0.277,1.818,0.01c0.405-0.265,0.979-0.766,1.725-1.501c0.743-0.733,1.454-1.503,2.134-2.305
		c1.08-0.8,2.635-1.865,4.664-3.198c2.027-1.331,4.085-2.562,6.181-3.693c2.092-1.127,3.95-1.958,5.568-2.487
		C401.43,78.331,402.37,78.469,402.637,79.276z M233.411,70.482c2.174-3.947,4.653-7.729,7.435-11.34
		c2.778-3.611,5.623-6.617,8.533-9.019c2.908-2.401,5.235-3.327,6.984-2.782c0.94,0.276,1.137,1.114,0.592,2.521
		c-0.547,1.407-1.566,3.114-3.058,5.12c-1.494,2.006-3.324,4.212-5.49,6.618c-2.168,2.406-4.403,4.811-6.705,7.215
		c-2.305,2.405-4.539,4.644-6.703,6.711c-2.167,2.072-3.994,3.706-5.48,4.906C229.937,77.75,231.233,74.434,233.411,70.482z
		 M164.398,105.923c3.899,0.021,7.122,0.594,9.667,1.719c4.74,2.073,7.094,5.857,7.064,11.353c-0.032,5.848-2.208,9.828-6.53,11.94
		c-2.381,1.155-5.639,1.723-9.774,1.7c-0.47-0.002-0.953-0.019-1.452-0.051c-0.498-0.032-1.553-0.126-3.165-0.281l0.127-23.42
		c0.004-0.759,0.094-1.335,0.252-1.769c0.457-0.179,0.906-0.348,1.372-0.537c0.491-0.199,1.029-0.423,1.544-0.636
		C163.788,105.933,164.069,105.921,164.398,105.923z M227.098,79.815l-0.419,2.818c-1.084,0.935-2.47,2.001-4.159,3.201
		c-1.691,1.199-3.415,2.298-5.168,3.295c-1.757,0.998-3.377,1.829-4.862,2.491c-1.487,0.666-2.428,0.862-2.831,0.589l-0.402-0.405
		c-0.936-1.346,0.29-3.891,3.678-7.634c1.627-2.005,3.419-3.708,5.381-5.108c1.958-1.4,3.546-1.96,4.756-1.686
		c1.749,0.009,2.826,0.417,3.226,1.226c-0.003,0.538,0.127,0.806,0.399,0.808l0.404,0.002L227.098,79.815z M353.511,86.666
		c-0.804-0.675-1.07-1.785-0.79-3.328c0.276-1.541,0.824-3.049,1.64-4.523c0.815-1.472,1.799-2.776,2.95-3.913
		c1.148-1.133,2.196-1.631,3.139-1.493c0.536,0.138,0.703,0.743,0.495,1.815c-0.208,1.075-0.688,2.312-1.434,3.718
		c-0.749,1.406-1.666,2.811-2.75,4.216C355.675,84.562,354.592,85.733,353.511,86.666z"/>
	<path fill="#CDB87D" d="M44.255,155.868c-2.915,1.314-7.426,1.955-13.533,1.922c-5.639-0.03-9.022-0.208-10.151-0.537
		c-1.128-0.327-1.688-1.383-1.678-3.168l0.121-22.236l13.898,0.075c3.812,0.021,6.243,0.597,7.292,1.729
		c1.049,1.132,1.902,3.438,2.558,6.92l2.11,0.012l0.113-20.745l-2.11-0.012c-0.665,3.459-1.527,5.753-2.589,6.881
		c-1.061,1.129-3.513,1.685-7.354,1.664l-13.898-0.075l0.108-20.044c0.006-1.169,0.165-1.965,0.476-2.388
		c0.311-0.422,1.128-0.63,2.452-0.623l12.263,0.066c5.278,0.028,8.676,0.629,10.194,1.8c1.518,1.173,2.647,3.74,3.389,7.703
		l2.288,0.012l-0.238-12.853l-47.854-0.258l-0.009,1.667c3.341,0.251,5.494,0.87,6.456,1.854c0.962,0.985,1.435,3.071,1.417,6.258
		l-0.217,39.956c-0.019,3.374-0.521,5.473-1.507,6.296c-0.988,0.824-3.139,1.4-6.454,1.731l-0.009,1.667l48.688,0.262l4.173-15.152
		l-2.507-0.013C49.799,151.345,47.169,154.553,44.255,155.868z"/>
	<path fill="#CDB87D" d="M115.147,137.282c-2.018-2.556-5.494-5.367-10.428-8.437l-7.885-4.91c-2.949-1.828-5.121-3.58-6.516-5.254
		c-1.396-1.645-2.087-3.622-2.075-5.932c0.014-2.572,0.94-4.579,2.782-6.016c1.839-1.437,3.992-2.149,6.455-2.136
		c3.167,0.017,6.364,1.175,9.592,3.473c3.226,2.298,5.558,6.331,6.993,12.1l2.155,0.011l-1.875-19.133l-1.847-0.01
		c-0.24,0.963-0.574,1.707-1.001,2.23c-0.429,0.524-1.2,0.783-2.313,0.778c-0.411-0.002-2.058-0.515-4.94-1.54
		c-2.883-1.024-5.351-1.542-7.403-1.554c-4.985-0.026-8.996,1.458-12.031,4.453c-3.037,2.995-4.568,6.758-4.592,11.291
		c-0.019,3.421,1.24,6.556,3.775,9.407c1.371,1.498,3.208,2.983,5.512,4.458l7.656,4.823c4.404,2.772,7.29,4.85,8.659,6.23
		c2.095,2.176,3.134,4.726,3.118,7.648c-0.018,3.246-1.078,5.77-3.181,7.571c-2.104,1.802-4.59,2.695-7.459,2.68
		c-5.299-0.029-9.723-2.144-13.273-6.346c-2.037-2.408-3.805-5.634-5.306-9.677l-2.067-0.011l2.579,19.136l1.979,0.011
		c0.121-0.729,0.367-1.415,0.737-2.057c0.37-0.641,1.083-0.96,2.139-0.955c0.44,0.003,2.174,0.539,5.204,1.608
		c3.029,1.068,5.936,1.611,8.722,1.626c5.542,0.03,10.104-1.524,13.683-4.663c3.58-3.138,5.382-7.062,5.408-11.769
		C118.12,142.911,117.135,139.866,115.147,137.282z"/>
	<path fill="#CDB87D" d="M217.513,158.874c-0.988,0.823-3.139,1.399-6.454,1.73l-0.009,1.667l48.689,0.264l4.172-15.152
		l-2.506-0.014c-2.345,5.104-4.974,8.312-7.888,9.627c-2.915,1.315-7.426,1.956-13.533,1.924c-5.639-0.03-9.022-0.21-10.151-0.538
		c-1.128-0.327-1.688-1.384-1.678-3.167l0.121-22.236l13.898,0.074c3.812,0.021,6.243,0.598,7.292,1.729
		c1.05,1.134,1.901,3.439,2.558,6.922l2.111,0.011l0.112-20.745l-2.111-0.012c-0.664,3.46-1.527,5.753-2.589,6.881
		c-1.061,1.13-3.513,1.685-7.354,1.663l-13.898-0.075l0.109-20.043c0.006-1.169,0.165-1.965,0.476-2.387
		c0.311-0.422,1.127-0.63,2.451-0.623l12.263,0.066c5.278,0.028,8.676,0.629,10.194,1.801c1.518,1.173,2.647,3.739,3.389,7.703
		l2.287,0.012l-0.238-12.853l-47.853-0.258l-0.009,1.667c3.341,0.252,5.494,0.87,6.456,1.854c0.962,0.985,1.435,3.071,1.417,6.257
		l-0.217,39.956C219.001,155.953,218.499,158.051,217.513,158.874z"/>
	<path fill="#CDB87D" d="M340.132,153.013l-1.663-1.676c-2.712,2.529-5.2,4.417-7.464,5.661c-3.942,2.202-8.243,3.289-12.906,3.265
		c-6.45-0.034-11.767-2.454-15.948-7.257c-4.182-4.804-6.251-11.211-6.207-19.225c0.047-8.711,2.084-15.543,6.114-20.493
		c4.029-4.949,9.196-7.407,15.5-7.373c6.246,0.034,11.203,2.371,14.874,7.011c1.922,2.465,3.471,5.706,4.653,9.718l2.067,0.012
		l-0.725-20.18l-1.892-0.01c-0.299,0.993-0.831,1.721-1.595,2.185c-0.766,0.463-1.573,0.693-2.424,0.688
		c-0.411-0.002-2.329-0.495-5.753-1.478c-3.426-0.984-6.766-1.484-10.02-1.502c-9.354-0.051-16.965,3.022-22.834,9.219
		c-5.574,5.906-8.385,13.23-8.432,21.973c-0.047,8.538,2.539,15.672,7.756,21.402c5.655,6.2,13.321,9.325,22.997,9.377
		c5.894,0.032,11.371-1.545,16.432-4.735C335.634,157.71,338.124,155.517,340.132,153.013z"/>
	<path fill="#CDB87D" d="M362.937,105.328c3.665,0.195,6.036,0.771,7.116,1.727c1.079,0.956,1.61,3.085,1.592,6.389l-0.217,39.956
		c-0.02,3.461-0.573,5.604-1.662,6.425c-1.09,0.824-3.468,1.356-7.135,1.598l-0.009,1.667l26.653,0.144l0.009-1.666
		c-3.664-0.281-6.036-0.839-7.115-1.675c-1.081-0.834-1.612-2.981-1.593-6.442l0.217-39.956c0.019-3.304,0.572-5.428,1.663-6.372
		c1.089-0.944,3.467-1.495,7.134-1.65l0.009-1.667l-26.653-0.144L362.937,105.328z"/>
	<path fill="#CDB87D" d="M464.732,154.08l-22.166-51.042l-1.794-0.01l-19.004,43.979c-2.848,6.593-4.855,10.624-6.021,12.095
		c-1.167,1.473-2.909,2.332-5.226,2.579l-0.01,1.667l17.849,0.097l0.009-1.668c-2.106-0.186-3.539-0.454-4.297-0.809
		c-1.227-0.587-1.836-1.639-1.829-3.152c0.004-0.757,0.236-1.78,0.699-3.073c0.461-1.292,1.877-4.87,4.248-10.735l23.739,0.129
		l3.559,8.659c0.52,1.226,0.924,2.392,1.212,3.5c0.287,1.106,0.43,1.879,0.427,2.314c-0.007,1.31-0.393,2.13-1.156,2.46
		c-0.765,0.33-2.463,0.604-5.096,0.824l-0.009,1.666l22.907,0.124l0.009-1.667c-2.11-0.302-3.61-0.854-4.5-1.659
		C467.393,159.555,466.209,157.462,464.732,154.08z M428.737,140.377l10.504-24.681l10.188,24.792L428.737,140.377z"/>
	<path fill="#CDB87D" d="M543.922,148.498c-2.671,5.396-5.42,8.743-8.245,10.043c-2.827,1.302-8.247,1.93-16.262,1.887
		c-2.054-0.012-3.456-0.033-4.204-0.068c-0.749-0.031-1.461-0.094-2.135-0.185c-1.146-0.153-1.885-0.516-2.218-1.087
		c-0.336-0.573-0.499-1.355-0.494-2.351l0.234-43.157c0.017-2.982,0.591-4.924,1.725-5.824c1.134-0.899,3.357-1.429,6.672-1.586
		l0.009-1.667l-25.421-0.137l-0.01,1.667c3.341,0.252,5.493,0.87,6.456,1.854c0.962,0.986,1.434,3.071,1.417,6.258l-0.216,39.956
		c-0.019,3.375-0.521,5.473-1.507,6.296c-0.988,0.824-3.138,1.4-6.454,1.731l-0.009,1.667l48.464,0.262l4.487-15.546
		L543.922,148.498z"/>
	<g>
		<path fill="#CDB87D" d="M127.298,193.064l-0.024,4.527c-0.005,0.978,0.098,1.585,0.312,1.823c0.289,0.338,0.729,0.509,1.319,0.512
			l0.598,0.003l-0.002,0.424l-6.678-0.036l0.002-0.424l0.586,0.003c0.659,0.004,1.131-0.207,1.417-0.634
			c0.155-0.236,0.234-0.798,0.239-1.683l0.055-10.042c0.005-0.978-0.095-1.586-0.301-1.824c-0.297-0.338-0.74-0.508-1.33-0.511
			l-0.586-0.004l0.002-0.424l5.712,0.031c1.395,0.008,2.494,0.156,3.297,0.446c0.803,0.291,1.479,0.778,2.027,1.462
			s0.819,1.49,0.814,2.423c-0.007,1.269-0.432,2.299-1.275,3.088c-0.844,0.79-2.032,1.182-3.564,1.173
			c-0.375-0.002-0.782-0.03-1.218-0.086C128.263,193.256,127.796,193.174,127.298,193.064z M127.302,192.411
			c0.406,0.077,0.765,0.137,1.079,0.177s0.583,0.061,0.805,0.062c0.797,0.005,1.486-0.3,2.068-0.911
			c0.582-0.612,0.875-1.407,0.88-2.385c0.004-0.674-0.131-1.298-0.403-1.877c-0.272-0.578-0.661-1.012-1.165-1.301
			c-0.504-0.291-1.078-0.437-1.722-0.44c-0.391-0.002-0.894,0.068-1.507,0.21L127.302,192.411z"/>
		<path fill="#CDB87D" d="M160.848,200.523l-4.161-0.022l-5.236-7.296c-0.391,0.013-0.709,0.02-0.955,0.018
			c-0.1,0-0.207-0.003-0.322-0.007c-0.115-0.005-0.234-0.012-0.356-0.02l-0.024,4.517c-0.005,0.977,0.099,1.586,0.312,1.823
			c0.289,0.339,0.725,0.508,1.308,0.512l0.609,0.003l-0.002,0.425l-6.679-0.036l0.002-0.425l0.586,0.003
			c0.659,0.004,1.132-0.207,1.418-0.634c0.162-0.235,0.245-0.797,0.25-1.684l0.055-10.04c0.005-0.978-0.099-1.586-0.312-1.824
			c-0.297-0.338-0.741-0.509-1.331-0.513l-0.586-0.003l0.002-0.424l5.678,0.031c1.655,0.009,2.875,0.136,3.659,0.381
			c0.785,0.244,1.448,0.691,1.993,1.34s0.814,1.42,0.81,2.313c-0.005,0.956-0.322,1.784-0.951,2.482
			c-0.628,0.7-1.598,1.191-2.91,1.475l3.194,4.477c0.73,1.027,1.359,1.712,1.886,2.05c0.527,0.34,1.215,0.557,2.065,0.653
			L160.848,200.523z M149.822,192.475c0.146,0,0.272,0.003,0.379,0.008c0.107,0.004,0.196,0.006,0.265,0.006
			c1.487,0.008,2.609-0.306,3.368-0.943c0.758-0.639,1.14-1.453,1.146-2.447c0.005-0.97-0.295-1.762-0.901-2.372
			c-0.606-0.61-1.411-0.919-2.414-0.924c-0.445-0.003-1.047,0.066-1.807,0.208L149.822,192.475z"/>
		<path fill="#CDB87D" d="M178.754,184.722c2.022,0.011,3.771,0.787,5.247,2.326c1.474,1.54,2.206,3.456,2.193,5.748
			c-0.013,2.361-0.771,4.317-2.273,5.869c-1.503,1.55-3.315,2.319-5.438,2.309c-2.146-0.012-3.944-0.781-5.396-2.311
			c-1.452-1.527-2.171-3.499-2.158-5.914c0.014-2.468,0.868-4.478,2.562-6.027C174.96,185.377,176.715,184.711,178.754,184.722z
			 M178.531,185.557c-1.395-0.008-2.516,0.503-3.365,1.529c-1.057,1.278-1.592,3.155-1.605,5.631c-0.014,2.537,0.52,4.492,1.6,5.866
			c0.83,1.044,1.931,1.569,3.302,1.576c1.464,0.009,2.675-0.554,3.636-1.688c0.96-1.133,1.447-2.927,1.46-5.38
			c0.014-2.658-0.5-4.645-1.543-5.957C181.179,186.091,180.018,185.564,178.531,185.557z M181.17,180.034l-3.412,3.937l-0.391-0.002
			l1.229-3.948L181.17,180.034z"/>
		<path fill="#CDB87D" d="M206.131,192.159l3.318,4.992c0.92,1.381,1.603,2.254,2.049,2.618c0.446,0.366,1.014,0.569,1.704,0.611
			l-0.002,0.425l-6.69-0.036l0.002-0.425c0.445-0.005,0.774-0.048,0.989-0.132c0.162-0.067,0.294-0.172,0.399-0.312
			c0.104-0.142,0.156-0.284,0.157-0.43c0.001-0.175-0.032-0.352-0.1-0.527c-0.053-0.13-0.262-0.468-0.626-1.013l-2.623-4.002
			l-3.287,4.154c-0.348,0.441-0.556,0.736-0.626,0.885s-0.105,0.304-0.106,0.464c-0.001,0.244,0.101,0.447,0.307,0.608
			c0.206,0.162,0.6,0.257,1.182,0.281l-0.002,0.425l-5.529-0.03l0.002-0.424c0.391-0.036,0.729-0.114,1.013-0.235
			c0.476-0.196,0.929-0.46,1.36-0.795c0.431-0.333,0.925-0.848,1.48-1.539l3.703-4.611l-3.044-4.498
			c-0.829-1.22-1.534-2.02-2.114-2.402c-0.581-0.38-1.25-0.585-2.008-0.612l0.002-0.423l7.207,0.038l-0.002,0.424
			c-0.613,0.021-1.033,0.117-1.26,0.291c-0.227,0.176-0.341,0.369-0.342,0.584c-0.001,0.282,0.18,0.695,0.545,1.24l2.371,3.577
			l2.79-3.48c0.324-0.41,0.522-0.691,0.596-0.845c0.074-0.152,0.111-0.309,0.112-0.47c0.001-0.16-0.044-0.302-0.136-0.425
			c-0.113-0.161-0.259-0.273-0.435-0.34c-0.176-0.065-0.54-0.104-1.091-0.115l0.002-0.424l5.529,0.029l-0.002,0.424
			c-0.437,0.021-0.793,0.088-1.07,0.2c-0.416,0.175-0.796,0.409-1.142,0.705c-0.347,0.296-0.836,0.844-1.469,1.643L206.131,192.159z
			"/>
		<path fill="#CDB87D" d="M230.159,200.473l-0.002,0.425l-6.678-0.036l0.002-0.425l0.552,0.003c0.644,0.004,1.112-0.181,1.405-0.553
			c0.186-0.244,0.281-0.833,0.286-1.765l0.055-10.04c0.004-0.788-0.043-1.308-0.141-1.56c-0.076-0.192-0.232-0.357-0.469-0.496
			c-0.336-0.186-0.688-0.279-1.056-0.281l-0.551-0.003l0.002-0.424l6.678,0.036l-0.002,0.424l-0.562-0.003
			c-0.637-0.003-1.101,0.182-1.394,0.554c-0.193,0.243-0.292,0.833-0.297,1.765l-0.055,10.041c-0.004,0.787,0.042,1.307,0.141,1.559
			c0.075,0.192,0.235,0.357,0.48,0.496c0.329,0.185,0.677,0.278,1.045,0.28L230.159,200.473z"/>
		<path fill="#CDB87D" d="M249.78,201.003l-5.952-13.111l-0.056,10.386c-0.005,0.955,0.095,1.552,0.3,1.789
			c0.281,0.323,0.729,0.485,1.342,0.488l0.552,0.004l-0.002,0.424l-5.426-0.029l0.002-0.425l0.552,0.003
			c0.659,0.004,1.127-0.192,1.405-0.588c0.17-0.244,0.257-0.801,0.262-1.671l0.055-10.156c0.003-0.688-0.07-1.185-0.222-1.491
			c-0.106-0.223-0.302-0.409-0.589-0.56s-0.748-0.228-1.384-0.23l0.002-0.424l4.414,0.023l5.589,12.191l5.629-12.131l4.414,0.024
			l-0.002,0.423l-0.54-0.003c-0.667-0.004-1.139,0.192-1.417,0.588c-0.17,0.245-0.257,0.803-0.262,1.673l-0.055,10.155
			c-0.005,0.956,0.099,1.553,0.312,1.79c0.282,0.323,0.729,0.485,1.343,0.488l0.54,0.004l-0.002,0.424l-6.62-0.036l0.002-0.424
			l0.551,0.003c0.667,0.004,1.135-0.193,1.406-0.589c0.17-0.243,0.257-0.801,0.262-1.672l0.057-10.385l-6.083,13.046L249.78,201.003
			z"/>
		<path fill="#CDB87D" d="M281.294,195.969l-6.034-0.032l-1.071,2.447c-0.264,0.603-0.396,1.053-0.397,1.351
			c-0.001,0.237,0.11,0.445,0.335,0.626c0.226,0.182,0.714,0.301,1.464,0.357l-0.002,0.425l-4.908-0.027l0.002-0.424
			c0.652-0.11,1.074-0.258,1.267-0.439c0.392-0.364,0.829-1.108,1.31-2.229l5.553-12.763l0.402,0.003l5.356,12.958
			c0.432,1.042,0.824,1.719,1.179,2.03s0.849,0.487,1.486,0.528l-0.003,0.425l-6.149-0.033l0.003-0.425
			c0.62-0.026,1.04-0.127,1.26-0.302s0.33-0.389,0.331-0.641c0.002-0.336-0.148-0.867-0.451-1.596L281.294,195.969z
			 M280.977,195.119l-2.609-6.296l-2.747,6.267L280.977,195.119z"/>
		<path fill="#CDB87D" d="M306.545,201.309l-5.952-13.11l-0.057,10.386c-0.005,0.955,0.095,1.551,0.301,1.789
			c0.281,0.322,0.729,0.485,1.342,0.488l0.553,0.003l-0.003,0.425l-5.425-0.029l0.002-0.425l0.552,0.003
			c0.659,0.004,1.128-0.193,1.406-0.588c0.17-0.244,0.257-0.802,0.262-1.672l0.056-10.155c0.003-0.688-0.07-1.186-0.223-1.492
			c-0.105-0.222-0.302-0.408-0.589-0.559c-0.286-0.151-0.748-0.228-1.384-0.231l0.003-0.424l4.414,0.024l5.589,12.191l5.629-12.131
			l4.415,0.023l-0.003,0.423l-0.54-0.003c-0.667-0.003-1.139,0.193-1.417,0.589c-0.17,0.245-0.257,0.802-0.262,1.672l-0.056,10.157
			c-0.005,0.955,0.099,1.552,0.312,1.789c0.282,0.322,0.729,0.485,1.343,0.488l0.54,0.003l-0.003,0.424l-6.62-0.036l0.002-0.424
			l0.551,0.004c0.667,0.003,1.136-0.193,1.406-0.59c0.169-0.243,0.257-0.8,0.262-1.67l0.057-10.386l-6.083,13.045L306.545,201.309z"
			/>
		<path fill="#CDB87D" d="M332.261,186.754l-0.033,6.143l3.425,0.019c0.889,0.005,1.483-0.125,1.784-0.392
			c0.4-0.349,0.626-0.967,0.677-1.853l0.426,0.002l-0.029,5.409l-0.427-0.002c-0.103-0.757-0.207-1.242-0.313-1.457
			c-0.136-0.268-0.361-0.479-0.675-0.634s-0.796-0.234-1.447-0.238l-3.425-0.018l-0.028,5.123c-0.003,0.688,0.025,1.106,0.085,1.257
			c0.062,0.149,0.168,0.268,0.32,0.356c0.153,0.089,0.444,0.135,0.873,0.138l2.644,0.014c0.881,0.005,1.521-0.053,1.921-0.174
			c0.398-0.12,0.783-0.358,1.153-0.716c0.478-0.471,0.968-1.183,1.472-2.136l0.46,0.003l-1.366,3.89l-12.012-0.064l0.002-0.425
			l0.553,0.003c0.367,0.002,0.716-0.083,1.046-0.257c0.246-0.121,0.414-0.304,0.504-0.548c0.089-0.243,0.136-0.745,0.14-1.502
			l0.055-10.098c0.006-0.985-0.091-1.593-0.289-1.823c-0.274-0.308-0.732-0.463-1.377-0.467l-0.551-0.003l0.003-0.424l12.011,0.064
			l0.154,3.405l-0.448-0.002c-0.157-0.819-0.332-1.381-0.525-1.688c-0.193-0.307-0.482-0.542-0.864-0.705
			c-0.306-0.114-0.846-0.175-1.62-0.18L332.261,186.754z"/>
		<path fill="#CDB87D" d="M350.832,186.005l4.23,0.023l9.465,11.708l0.049-8.963c0.005-0.955-0.099-1.553-0.312-1.79
			c-0.281-0.323-0.729-0.485-1.341-0.489l-0.54-0.003l0.002-0.424l5.425,0.03l-0.002,0.423l-0.552-0.003
			c-0.659-0.003-1.127,0.192-1.406,0.589c-0.17,0.244-0.257,0.801-0.262,1.672l-0.071,13.102l-0.413-0.002l-10.208-12.572
			l-0.052,9.571c-0.006,0.955,0.095,1.551,0.3,1.789c0.29,0.322,0.737,0.485,1.342,0.488l0.552,0.003l-0.002,0.425l-5.426-0.029
			l0.003-0.425l0.54,0.003c0.667,0.004,1.139-0.192,1.417-0.588c0.17-0.243,0.258-0.802,0.263-1.672l0.059-10.81
			c-0.45-0.529-0.791-0.879-1.023-1.048c-0.233-0.17-0.575-0.328-1.026-0.477c-0.222-0.068-0.56-0.105-1.012-0.108L350.832,186.005z
			"/>
		<path fill="#CDB87D" d="M391.18,186.223l0.153,3.646l-0.438-0.002c-0.081-0.643-0.193-1.102-0.337-1.377
			c-0.235-0.444-0.55-0.772-0.943-0.986c-0.394-0.212-0.912-0.32-1.555-0.323l-2.196-0.011l-0.064,11.874
			c-0.005,0.955,0.096,1.553,0.301,1.79c0.289,0.323,0.737,0.484,1.343,0.488l0.54,0.003l-0.002,0.424l-6.61-0.035l0.002-0.424
			l0.552,0.003c0.659,0.003,1.128-0.193,1.405-0.589c0.17-0.243,0.258-0.801,0.263-1.672l0.064-11.875l-1.874-0.01
			c-0.728-0.004-1.245,0.046-1.552,0.151c-0.399,0.144-0.742,0.421-1.028,0.833c-0.285,0.409-0.457,0.967-0.515,1.67l-0.437-0.003
			l0.203-3.644L391.18,186.223z"/>
		<path fill="#CDB87D" d="M406.27,187.153l-0.034,6.144l3.425,0.019c0.89,0.005,1.484-0.126,1.785-0.393
			c0.4-0.349,0.626-0.967,0.676-1.853l0.426,0.003l-0.029,5.408l-0.426-0.002c-0.103-0.757-0.207-1.242-0.313-1.457
			c-0.136-0.268-0.361-0.479-0.675-0.633c-0.313-0.155-0.796-0.235-1.447-0.238l-3.425-0.019l-0.028,5.123
			c-0.003,0.688,0.025,1.106,0.085,1.257c0.061,0.148,0.168,0.268,0.32,0.356c0.153,0.09,0.444,0.134,0.873,0.137l2.644,0.014
			c0.881,0.005,1.521-0.053,1.921-0.173c0.398-0.12,0.783-0.358,1.153-0.716c0.478-0.472,0.968-1.182,1.472-2.136l0.46,0.003
			l-1.366,3.89l-12.012-0.064l0.002-0.425l0.552,0.003c0.368,0.002,0.717-0.084,1.047-0.257c0.246-0.122,0.414-0.304,0.503-0.547
			c0.09-0.245,0.137-0.746,0.141-1.503l0.055-10.098c0.006-0.985-0.091-1.593-0.289-1.823c-0.274-0.309-0.732-0.463-1.376-0.467
			l-0.552-0.003l0.002-0.424l12.012,0.065l0.154,3.405l-0.448-0.003c-0.157-0.819-0.332-1.381-0.525-1.688
			c-0.194-0.307-0.482-0.543-0.864-0.705c-0.306-0.115-0.847-0.176-1.62-0.181L406.27,187.153z"/>
	</g>
</g>
</svg>
