<?xml version="1.0" encoding="utf-8"?>
<Project name="adriana20 seg" themeId="0" version="65540" templateID="SimpleProjectTemplate">
  <MediaItems>
    <MediaItem id="1" filePath="C:\Users\Glock\Downloads\__MACOSX\AA_2015_Basicos.mp4" arWidth="1920" arHeight="1080" duration="61.771929200000002" songTitle="" songArtist="" songAlbum="" songCopyrightUrl="" songArtistUrl="" songAudioFileUrl="" stabilizationMode="0" mediaItemType="1" />
    <MediaItem id="2" filePath="C:\Users\Glock\Desktop\CAMPAÃA AUDIO ADRIANA ARANGO Folder\ADRIANA CUNA 20 version 1.mp3" arWidth="0" arHeight="0" duration="20.871825000000001" songTitle="" songArtist="" songAlbum="" songCopyrightUrl="" songArtistUrl="" songAudioFileUrl="" stabilizationMode="0" mediaItemType="3" />
    <MediaItem id="3" filePath="C:\Users\Glock\Downloads\__MACOSX\AA_2015_Basicos_1.mp4" arWidth="1280" arHeight="720" duration="61.741745999999999" songTitle="" songArtist="" songAlbum="" songCopyrightUrl="" songArtistUrl="" songAudioFileUrl="" stabilizationMode="0" mediaItemType="1" />
    <MediaItem id="4" filePath="C:\Users\Glock\Downloads\__MACOSX\AA_2015_juveniles_1.mp4" arWidth="1280" arHeight="720" duration="97.1753061" songTitle="" songArtist="" songAlbum="" songCopyrightUrl="" songArtistUrl="" songAudioFileUrl="" stabilizationMode="0" mediaItemType="1" />
    <MediaItem id="5" filePath="C:\Users\Glock\Downloads\__MACOSX\AA_2015_Romanticas_1.mp4" arWidth="1280" arHeight="720" duration="59.907369600000003" songTitle="" songArtist="" songAlbum="" songCopyrightUrl="" songArtistUrl="" songAudioFileUrl="" stabilizationMode="0" mediaItemType="1" />
    <MediaItem id="6" filePath="C:\Users\Glock\Downloads\__MACOSX\AA_2015_Seduccion.mp4" arWidth="1920" arHeight="1080" duration="67.873262499999996" songTitle="" songArtist="" songAlbum="" songCopyrightUrl="" songArtistUrl="" songAudioFileUrl="" stabilizationMode="0" mediaItemType="1" />
    <MediaItem id="7" filePath="C:\Users\Glock\Downloads\__MACOSX\Mix and Match.mp4" arWidth="1280" arHeight="720" duration="55.905283300000001" songTitle="" songArtist="" songAlbum="" songCopyrightUrl="" songArtistUrl="" songAudioFileUrl="" stabilizationMode="0" mediaItemType="1" />
    <MediaItem id="8" filePath="C:\Users\Glock\Downloads\__MACOSX\alto rendimiento.mp4" arWidth="1280" arHeight="720" duration="107.6812" songTitle="" songArtist="" songAlbum="" songCopyrightUrl="" songArtistUrl="" songAudioFileUrl="" stabilizationMode="0" mediaItemType="1" />
    <MediaItem id="9" filePath="C:\Users\Glock\Downloads\__MACOSX\Bienestar.mp4" arWidth="1280" arHeight="720" duration="65.782595799999996" songTitle="" songArtist="" songAlbum="" songCopyrightUrl="" songArtistUrl="" songAudioFileUrl="" stabilizationMode="0" mediaItemType="1" />
    <MediaItem id="10" filePath="C:\Users\Glock\Downloads\AA fragancias 2015_v2.mp4" arWidth="1920" arHeight="1080" duration="43.242604100000001" songTitle="" songArtist="" songAlbum="" songCopyrightUrl="" songArtistUrl="" songAudioFileUrl="" stabilizationMode="0" mediaItemType="1" />
    <MediaItem id="11" filePath="C:\Users\Glock\Desktop\adrianapbx-01-01-01-01.jpg" arWidth="96" arHeight="54" duration="0" songTitle="" songArtist="" songAlbum="" songCopyrightUrl="" songArtistUrl="" songAudioFileUrl="" stabilizationMode="0" mediaItemType="2" />
  </MediaItems>
  <Extents>
    <VideoClip extentID="35" gapBefore="0" mediaItemID="8" inTime="37.065915789473685" outTime="37.868747368421054" speed="1" stabilizationMode="0">
      <Effects />
      <Transitions>
        <ShapeEffect effectTemplateID="CrossfadeTransitionTemplate" duration="1.5">
          <BoundProperties />
        </ShapeEffect>
      </Transitions>
      <BoundProperties>
        <BoundPropertyBool Name="Mute" Value="false" />
        <BoundPropertyInt Name="rotateStepNinety" Value="0" />
        <BoundPropertyFloat Name="Volume" Value="0" />
      </BoundProperties>
    </VideoClip>
    <VideoClip extentID="18" gapBefore="0" mediaItemID="6" inTime="23.046124401913879" outTime="24.681186363636364" speed="1" stabilizationMode="0">
      <Effects />
      <Transitions>
        <ShapeEffect effectTemplateID="CrossfadeTransitionTemplate" duration="1.5">
          <BoundProperties />
        </ShapeEffect>
      </Transitions>
      <BoundProperties>
        <BoundPropertyBool Name="Mute" Value="false" />
        <BoundPropertyInt Name="rotateStepNinety" Value="0" />
        <BoundPropertyFloat Name="Volume" Value="0" />
      </BoundProperties>
    </VideoClip>
    <VideoClip extentID="20" gapBefore="0" mediaItemID="3" inTime="39.290201999999994" outTime="43.27830521052632" speed="1" stabilizationMode="0">
      <Effects />
      <Transitions>
        <ShapeEffect effectTemplateID="CrossfadeTransitionTemplate" duration="1.5">
          <BoundProperties />
        </ShapeEffect>
      </Transitions>
      <BoundProperties>
        <BoundPropertyBool Name="Mute" Value="false" />
        <BoundPropertyInt Name="rotateStepNinety" Value="0" />
        <BoundPropertyFloat Name="Volume" Value="0.015686275437474251" />
      </BoundProperties>
    </VideoClip>
    <VideoClip extentID="5" gapBefore="0" mediaItemID="1" inTime="10.929811790430623" outTime="16.107991107177032" speed="1" stabilizationMode="0">
      <Effects />
      <Transitions>
        <ShapeEffect effectTemplateID="CrossfadeTransitionTemplate" duration="1.5">
          <BoundProperties />
        </ShapeEffect>
      </Transitions>
      <BoundProperties>
        <BoundPropertyBool Name="Mute" Value="false" />
        <BoundPropertyInt Name="rotateStepNinety" Value="0" />
        <BoundPropertyFloat Name="Volume" Value="0" />
      </BoundProperties>
    </VideoClip>
    <VideoClip extentID="43" gapBefore="0" mediaItemID="9" inTime="11.954424236363636" outTime="13.376843643540669" speed="1" stabilizationMode="0">
      <Effects />
      <Transitions>
        <ShapeEffect effectTemplateID="CrossfadeTransitionTemplate" duration="1.5">
          <BoundProperties />
        </ShapeEffect>
      </Transitions>
      <BoundProperties>
        <BoundPropertyBool Name="Mute" Value="false" />
        <BoundPropertyInt Name="rotateStepNinety" Value="0" />
        <BoundPropertyFloat Name="Volume" Value="0" />
      </BoundProperties>
    </VideoClip>
    <ImageClip extentID="61" gapBefore="0" mediaItemID="11" duration="5">
      <Effects>
        <ShaderEffect effectTemplateID="FadeOutToBlackEffectTemplate">
          <BoundProperties />
        </ShaderEffect>
      </Effects>
      <Transitions>
        <ShapeEffect effectTemplateID="BlurThroughBlackTransitionTemplate" duration="1.5">
          <BoundProperties />
        </ShapeEffect>
      </Transitions>
      <BoundProperties>
        <BoundPropertyInt Name="rotateStepNinety" Value="0" />
      </BoundProperties>
    </ImageClip>
    <VideoClip extentID="62" gapBefore="0" mediaItemID="10" inTime="24.93174064138756" outTime="29.173240086602874" speed="1" stabilizationMode="0">
      <Effects />
      <Transitions />
      <BoundProperties>
        <BoundPropertyBool Name="Mute" Value="false" />
        <BoundPropertyInt Name="rotateStepNinety" Value="0" />
        <BoundPropertyFloat Name="Volume" Value="0" />
      </BoundProperties>
    </VideoClip>
    <VideoClip extentID="11" gapBefore="0" mediaItemID="4" inTime="42.078302402153106" outTime="43.240686446411488" speed="1" stabilizationMode="0">
      <Effects />
      <Transitions>
        <ShapeEffect effectTemplateID="CrossfadeTransitionTemplate" duration="1.5">
          <BoundProperties />
        </ShapeEffect>
      </Transitions>
      <BoundProperties>
        <BoundPropertyBool Name="Mute" Value="false" />
        <BoundPropertyInt Name="rotateStepNinety" Value="0" />
        <BoundPropertyFloat Name="Volume" Value="0" />
      </BoundProperties>
    </VideoClip>
    <AudioClip extentID="64" gapBefore="0" mediaItemID="2" inTime="0" outTime="0" speed="1">
      <Effects />
      <Transitions />
      <BoundProperties>
        <BoundPropertyBool Name="Mute" Value="false" />
        <BoundPropertyFloat Name="Volume" Value="1" />
      </BoundProperties>
    </AudioClip>
    <VideoClip extentID="31" gapBefore="0" mediaItemID="7" inTime="8.5545645933014356" outTime="9.3565550239234447" speed="1" stabilizationMode="0">
      <Effects />
      <Transitions>
        <ShapeEffect effectTemplateID="CrossfadeTransitionTemplate" duration="1.5">
          <BoundProperties />
        </ShapeEffect>
      </Transitions>
      <BoundProperties>
        <BoundPropertyBool Name="Mute" Value="false" />
        <BoundPropertyInt Name="rotateStepNinety" Value="0" />
        <BoundPropertyFloat Name="Volume" Value="0" />
      </BoundProperties>
    </VideoClip>
    <VideoClip extentID="15" gapBefore="0" mediaItemID="5" inTime="16.051735395215314" outTime="17.341606989473686" speed="1" stabilizationMode="0">
      <Effects />
      <Transitions>
        <ShapeEffect effectTemplateID="CrossfadeTransitionTemplate" duration="1.5">
          <BoundProperties />
        </ShapeEffect>
      </Transitions>
      <BoundProperties>
        <BoundPropertyBool Name="Mute" Value="false" />
        <BoundPropertyInt Name="rotateStepNinety" Value="0" />
        <BoundPropertyFloat Name="Volume" Value="0" />
      </BoundProperties>
    </VideoClip>
    <ExtentSelector extentID="1" gapBefore="0" primaryTrack="true">
      <Effects />
      <Transitions />
      <BoundProperties />
      <ExtentRefs>
        <ExtentRef id="5" />
        <ExtentRef id="20" />
        <ExtentRef id="15" />
        <ExtentRef id="18" />
        <ExtentRef id="11" />
        <ExtentRef id="31" />
        <ExtentRef id="35" />
        <ExtentRef id="43" />
        <ExtentRef id="62" />
        <ExtentRef id="61" />
      </ExtentRefs>
    </ExtentSelector>
    <ExtentSelector extentID="2" gapBefore="0" primaryTrack="false">
      <Effects />
      <Transitions />
      <BoundProperties />
      <ExtentRefs>
        <ExtentRef id="64" />
      </ExtentRefs>
    </ExtentSelector>
    <ExtentSelector extentID="3" gapBefore="0" primaryTrack="false">
      <Effects />
      <Transitions />
      <BoundProperties />
      <ExtentRefs />
    </ExtentSelector>
    <ExtentSelector extentID="4" gapBefore="0" primaryTrack="false">
      <Effects />
      <Transitions />
      <BoundProperties />
      <ExtentRefs />
    </ExtentSelector>
  </Extents>
  <BoundPlaceholders>
    <BoundPlaceholder placeholderID="SingleExtentView" extentID="0" />
    <BoundPlaceholder placeholderID="Main" extentID="1" />
    <BoundPlaceholder placeholderID="SoundTrack" extentID="2" />
    <BoundPlaceholder placeholderID="Text" extentID="4" />
    <BoundPlaceholder placeholderID="Narration" extentID="3" />
  </BoundPlaceholders>
  <BoundProperties>
    <BoundPropertyFloatSet Name="AspectRatio">
      <BoundPropertyFloatElement Value="1.7777776718139648" />
    </BoundPropertyFloatSet>
    <BoundPropertyFloat Name="DuckedNarrationAndSoundTrackMix" Value="1" />
    <BoundPropertyFloat Name="DuckedVideoAndNarrationMix" Value="0" />
    <BoundPropertyFloat Name="DuckedVideoAndSoundTrackMix" Value="0.5" />
    <BoundPropertyFloat Name="SoundTrackMix" Value="0.5" />
  </BoundProperties>
  <ThemeOperationLog themeID="0">
    <MonolithicThemeOperations />
  </ThemeOperationLog>
  <AudioDuckingProperties emphasisPlaceholderID="Narration" />
</Project>