<?xml version="1.0" standalone="no"?>
<!DOCTYPE svg PUBLIC "-//W3C//DTD SVG 1.1//EN" "http://www.w3.org/Graphics/SVG/1.1/DTD/svg11.dtd" >
<svg xmlns="http://www.w3.org/2000/svg">
<metadata></metadata>
<defs>
<font id="helvcondensedregular" horiz-adv-x="1024" >
<font-face units-per-em="2048" ascent="1638" descent="-410" />
<missing-glyph horiz-adv-x="512" />
<glyph horiz-adv-x="0" />
<glyph unicode="&#xd;" horiz-adv-x="512" />
<glyph unicode=" "  horiz-adv-x="512" />
<glyph unicode="&#x09;" horiz-adv-x="512" />
<glyph unicode="&#xa0;" horiz-adv-x="512" />
<glyph unicode="!" horiz-adv-x="681" d="M248 0v205h186v-205h-186zM248 1065v471h186v-471l-47 -690h-92z" />
<glyph unicode="&#x22;" horiz-adv-x="512" d="M90 1051v462h107v-462h-107zM317 1051v462h107v-462h-107z" />
<glyph unicode="#" d="M10 520l35 121h221l78 254h-223l35 121h223l162 520h112l-159 -520h180l157 520h115l-160 -520h228l-35 -121h-229l-78 -254h229l-31 -121h-235l-160 -520h-113l160 520h-178l-164 -520h-112l161 520h-219zM381 641h178l78 254h-180z" />
<glyph unicode="$" d="M72 406l2 69h164q0 -127 9 -188.5t50 -102.5q27 -27 66.5 -42t99.5 -15v573q-203 90 -283 174q-94 98 -94 256q0 184 108.5 295t268.5 111v133h90v-133q162 0 252 -90q104 -104 104 -320h-166q0 139 -40.5 197.5t-149.5 58.5v-522q238 -104 307 -174q92 -92 92 -272 q0 -201 -96 -318q-104 -127 -307 -127v-207h-86v207q-225 0 -322 148q-70 106 -69 289zM262 1149q0 -94 43 -147.5t158 -108.5v489q-106 0 -158 -71q-43 -59 -43 -162zM549 127q227 0 227 250q0 119 -49 177t-178 114v-541z" />
<glyph unicode="%" horiz-adv-x="1705" d="M113 1143q0 170 61 260q72 104 223 104q139 0 207 -106q62 -96 62 -268q0 -369 -250 -369q-164 0 -233.5 92t-69.5 287zM250 1126q0 -246 141 -245q80 0 113 77q24 59 24 168q0 266 -141 267q-70 0 -103.5 -63.5t-33.5 -203.5zM428 -31l686 1567h105l-680 -1567h-111z M995 377q0 168 58 256q70 109 225 108q141 0 209 -100q61 -92 61 -266q0 -193 -72.5 -284t-215.5 -91q-129 0 -197 105.5t-68 271.5zM1133 360q0 -246 141 -245q80 0 112 78q25 58 25 167q0 266 -141 267q-70 0 -103.5 -63.5t-33.5 -203.5z" />
<glyph unicode="&#x26;" horiz-adv-x="1366" d="M154 408q0 160 82 270q68 92 233 196q-82 106 -113.5 183.5t-31.5 163.5q0 125 73 215q82 100 221 100q141 0 229.5 -86t88.5 -219q0 -98 -57 -187q-66 -100 -207 -196l295 -430q29 86 44 149.5t15 137.5h152q0 -139 -33 -248q-23 -72 -78 -176l203 -285h-207l-96 141 q-68 -84 -156 -129t-211 -45q-207 0 -326.5 122t-119.5 323zM330 408q0 -141 86 -220q78 -72 200 -71q68 0 129.5 30.5t131.5 112.5l-334 498q-115 -84 -164 -165t-49 -185zM479 1235q0 -55 26.5 -117.5t92.5 -156.5q94 70 135 139q35 59 35 129q0 74 -38 122t-105 48 q-70 0 -108 -50.5t-38 -113.5z" />
<glyph unicode="'" horiz-adv-x="512" d="M203 1051v462h106v-462h-106z" />
<glyph unicode="(" horiz-adv-x="681" d="M156 528q0 215 41 394q35 156 112 319q53 115 164 295h109q-86 -168 -125 -266q-59 -150 -94 -322t-35 -385q0 -295 60.5 -524t203.5 -479h-119q-152 250 -225 456q-92 258 -92 512z" />
<glyph unicode=")" horiz-adv-x="681" d="M90 1536h119q152 -250 225 -457q92 -258 92 -512q0 -215 -37.5 -382t-115.5 -330q-53 -115 -164 -295h-109q84 166 125 266q61 150 95 320.5t34 385.5q0 295 -60.5 524.5t-203.5 479.5z" />
<glyph unicode="*" d="M197 1280l34 90l232 -90v256h106v-250l228 84l32 -98l-233 -78l156 -197l-84 -65l-160 203l-148 -193l-88 55l154 191z" />
<glyph unicode="+" d="M90 449v143h350v442h144v-442h352v-143h-352v-449h-144v449h-350z" />
<glyph unicode="," horiz-adv-x="512" d="M164 0v205h186v-103q0 -190 -26 -260q-37 -96 -160 -141v92q100 29 100 207h-100z" />
<glyph unicode="-" horiz-adv-x="681" d="M92 563v170h498v-170h-498z" />
<glyph unicode="." horiz-adv-x="512" d="M164 0v205h186v-205h-186z" />
<glyph unicode="/" horiz-adv-x="569" d="M-27 -55l498 1591h125l-498 -1591h-125z" />
<glyph unicode="0" d="M94 756q0 451 119 626q102 154 301 154q184 0 285 -121q84 -100 112 -287q21 -128 21 -337q0 -254 -17 -375q-29 -207 -110 -316q-100 -131 -291 -131q-182 0 -283 129q-82 106 -114 305q-23 141 -23 353zM268 549q0 -217 55.5 -321.5t188.5 -104.5q145 0 201 166 q43 129 43 422v204q0 217 -49 328q-61 139 -209 139q-133 0 -189 -165q-41 -123 -41 -355v-313z" />
<glyph unicode="1" d="M152 1118v133q172 0 245 45q102 61 119 240h133v-1536h-170v1118h-327z" />
<glyph unicode="2" d="M90 0q0 96 15.5 184t52.5 160q31 59 114 141l295 285q90 88 124 154.5t34 185.5t-43 186q-55 86 -178 86q-127 0 -179.5 -85t-52.5 -240v-43h-170v86q0 207 106.5 321.5t295.5 114.5q190 0 293.5 -113.5t103.5 -318.5q0 -164 -74 -283q-47 -74 -174 -192l-278 -254 q-57 -53 -83 -101.5t-26 -119.5h649v-154h-825z" />
<glyph unicode="3" d="M78 451h168l-2 -58q0 -125 62.5 -197.5t193.5 -72.5q117 0 181 72.5t64 203.5q0 203 -92 267q-70 49 -268 49v153q172 0 231 37q86 53 86 232q0 133 -54 189t-163 56q-135 0 -184 -98q-33 -66 -33 -203h-162v25q0 209 102.5 319.5t280.5 110.5q174 0 279.5 -103.5 t105.5 -277.5q0 -141 -52 -223t-163 -123q109 -25 177 -104q79 -96 79 -256q0 -231 -109.5 -355.5t-320.5 -124.5q-238 0 -335 156q-72 113 -72 326z" />
<glyph unicode="4" d="M57 383v158l574 995h155v-999h138v-154h-138v-383h-170v383h-559zM193 537h423v733z" />
<glyph unicode="5" d="M88 360v41h176v-32q0 -102 39 -160q57 -86 193 -86q113 0 177 99.5t64 266.5q0 180 -59.5 272.5t-196.5 92.5q-80 0 -133 -36t-82 -103h-151l90 790h653v-153h-516l-68 -455q106 111 246 111q182 0 287.5 -130.5t105.5 -359.5q0 -244 -94 -385q-111 -164 -332 -164 q-211 0 -315 131q-84 104 -84 260z" />
<glyph unicode="6" d="M88 684q0 252 25 397q37 213 127 324q109 131 307 131q160 0 257 -95t97 -272h-174q0 113 -52 163t-149 50q-158 0 -223 -194q-47 -139 -47 -402q39 80 109 132q78 57 176 57q195 0 301 -141q96 -127 96 -326q0 -244 -112.5 -391.5t-297.5 -147.5q-262 0 -364 219 q-76 164 -76 496zM276 469q0 -90 19.5 -165t66.5 -122q33 -33 75 -46t83 -13q129 0 189 106q53 95 53 265q0 160 -59.5 243.5t-186.5 83.5q-59 0 -99 -17.5t-69 -45.5q-41 -41 -56.5 -112t-15.5 -177z" />
<glyph unicode="7" d="M90 1352v153h844v-141q-229 -315 -356 -629q-150 -371 -150 -735h-190q47 389 206 760q139 322 349 592h-703z" />
<glyph unicode="8" d="M94 440q0 164 88 269q80 94 203 118q-244 47 -244 340q0 168 102.5 268.5t284.5 100.5q172 0 265.5 -97.5t93.5 -277.5q0 -137 -60.5 -222t-171.5 -108q115 -20 189 -106q86 -100 86 -266q0 -217 -96 -346q-106 -143 -314 -144q-211 0 -318.5 124t-107.5 347zM270 446 q0 -158 62.5 -240.5t191.5 -82.5q111 0 170.5 88t59.5 233q0 152 -65.5 226.5t-176.5 74.5q-115 0 -178.5 -77.5t-63.5 -221.5zM317 1143q0 -119 52.5 -181.5t150.5 -62.5q111 0 156 80q35 62 35 164q0 113 -39 170q-47 70 -154 69q-201 0 -201 -239z" />
<glyph unicode="9" d="M88 995q0 244 112.5 392.5t297.5 148.5q256 0 360 -209q80 -161 80 -485q0 -248 -23 -396q-35 -221 -122 -335q-109 -141 -310 -142q-162 0 -260 94.5t-98 272.5h174q0 -113 55 -166q49 -47 148 -47q154 0 219 194q49 145 49 402q-39 -80 -112.5 -134.5t-172.5 -54.5 q-195 0 -301 140q-96 127 -96 325zM264 1022q0 -156 58.5 -247t183.5 -91q117 0 182.5 81.5t65.5 235.5q0 203 -76 299q-63 82 -174 82q-127 0 -189 -108q-51 -92 -51 -252z" />
<glyph unicode=":" horiz-adv-x="512" d="M164 0v205h186v-205h-186zM164 915v205h186v-205h-186z" />
<glyph unicode=";" horiz-adv-x="512" d="M164 0v205h186v-103q0 -190 -26 -260q-37 -96 -160 -141v92q100 29 100 207h-100zM164 915v205h186v-205h-186z" />
<glyph unicode="&#x3c;" d="M86 455v131l854 475v-150l-694 -391l694 -391v-149z" />
<glyph unicode="=" d="M90 254v143h846v-143h-846zM90 643v143h846v-143h-846z" />
<glyph unicode="&#x3e;" d="M86 -20v149l694 391l-694 391v150l854 -475v-131z" />
<glyph unicode="?" d="M123 1053v41q0 182 90 301q109 141 315 141q193 0 305.5 -106.5t112.5 -280.5q0 -106 -33 -184q-39 -92 -143 -207q-96 -104 -119 -135q-63 -82 -63 -191v-80h-182v21q0 135 27.5 209.5t129.5 187.5q123 133 164 215q33 66 33 150q0 111 -49 180q-55 78 -156 78 q-141 0 -203 -95q-51 -80 -51 -245h-178zM406 0v205h186v-205h-186z" />
<glyph unicode="@" horiz-adv-x="1638" d="M74 760q0 317 227 546.5t563 229.5q266 0 473 -172q228 -188 228 -479q0 -227 -152.5 -415.5t-327.5 -188.5q-66 0 -115.5 27.5t-68.5 80.5q-49 -49 -111.5 -76.5t-134.5 -27.5q-121 0 -203.5 85t-82.5 224q0 225 139 416q154 211 371 211q166 0 235 -138l29 97h141 l-219 -650q-6 -16 -12 -38.5t-6 -42.5q0 -31 18 -45.5t41 -14.5q117 0 229 139q125 156 125 363q0 240 -179 392.5t-429 152.5q-279 0 -476.5 -200t-197.5 -491q0 -285 207 -483q201 -193 469 -192q166 0 310.5 75.5t238.5 210.5h123q-92 -170 -266 -274 q-186 -113 -406 -113q-328 0 -554 230.5t-226 560.5zM526 606q0 -72 37 -129q45 -70 123 -69q66 0 128.5 50t105.5 136q108 217 108 356q0 55 -33 97q-41 51 -114 51q-150 0 -258 -176q-96 -158 -97 -316z" />
<glyph unicode="A" horiz-adv-x="1138" d="M23 0l438 1536h225l432 -1536h-188l-121 442h-485l-113 -442h-188zM365 596h405l-199 817z" />
<glyph unicode="B" horiz-adv-x="1138" d="M164 0v1536h465q364 0 364 -404q0 -135 -54 -203.5t-175 -111.5q129 -18 197.5 -106t68.5 -262q0 -215 -110.5 -332t-309.5 -117h-446zM334 154h268q135 0 193.5 64t58.5 228q0 182 -98 242q-61 37 -215 37h-207v-571zM334 879h229q129 0 188.5 59.5t59.5 198.5 q0 147 -64.5 196t-236.5 49h-176v-503z" />
<glyph unicode="C" horiz-adv-x="1138" d="M109 760q0 217 24 354q37 207 131 316q119 137 330 137q213 0 332 -144q104 -127 104 -317v-31h-170q0 180 -80 264q-70 74 -200 74q-68 0 -126.5 -36t-95.5 -109q-47 -94 -61 -226.5t-14 -379.5q0 -545 305 -545q147 0 215 123q57 106 57 315h170l-18 -203 q-14 -150 -113 -260q-115 -129 -299 -129q-209 0 -324 115q-100 100 -139 295q-28 138 -28 371v16z" />
<glyph unicode="D" horiz-adv-x="1251" d="M168 0v1536h414q262 0 391 -141q151 -166 151 -555q0 -524 -184 -717q-119 -123 -348 -123h-424zM338 154h258q78 0 130 15t95 58q66 66 96.5 181t30.5 303q0 223 -28.5 373.5t-100.5 222.5q-41 41 -95 58t-120 17h-266v-1228z" />
<glyph unicode="E" d="M152 0v1536h768v-154h-598v-508h561v-153h-561v-567h602v-154h-772z" />
<glyph unicode="F" horiz-adv-x="909" d="M152 0v1536h720v-154h-550v-503h512v-154h-512v-725h-170z" />
<glyph unicode="G" horiz-adv-x="1251" d="M111 786q0 383 112 572q125 209 400 209q184 0 301 -97q152 -125 151 -380h-172q0 150 -65 231q-74 92 -215 92q-215 0 -289 -213q-47 -135 -47 -438q0 -193 12 -291q20 -166 80 -250q74 -104 215 -104q156 0 233 94q92 113 93 424h-342v153h512v-800h-132v239 q-35 -123 -127 -193.5t-227 -70.5q-209 0 -328 127q-98 106 -137 309q-28 147 -28 371v16z" />
<glyph unicode="H" horiz-adv-x="1251" d="M162 0v1536h170v-641h588v641h170v-1536h-170v741h-588v-741h-170z" />
<glyph unicode="I" horiz-adv-x="569" d="M201 0v1536h170v-1536h-170z" />
<glyph unicode="J" horiz-adv-x="909" d="M43 416l2 65h170v-96q0 -137 36 -199.5t142 -62.5q104 0 147.5 63.5t43.5 196.5v1153h170v-1151q0 -229 -89.5 -322.5t-277.5 -93.5q-211 0 -291 150q-53 100 -53 297z" />
<glyph unicode="K" horiz-adv-x="1138" d="M162 0v1536h170v-788l559 788h213l-490 -643l504 -893h-209l-415 741l-160 -209v-532h-172z" />
<glyph unicode="L" d="M170 0v1536h170v-1382h627v-154h-797z" />
<glyph unicode="M" horiz-adv-x="1593" d="M156 0v1536h301l305 -1214q14 -59 21.5 -104.5t7.5 -106.5q14 84 22 135t18 86l308 1204h299v-1536h-170v1292v168l-47 -190l-326 -1270h-203l-330 1305l-36 155v-221v-1239h-170z" />
<glyph unicode="N" horiz-adv-x="1251" d="M158 0v1536h276l414 -1192q29 -80 48 -142.5t28 -90.5v151v1274h170v-1536h-279l-430 1229q-20 59 -35.5 121.5t-21.5 109.5v-211v-1249h-170z" />
<glyph unicode="O" horiz-adv-x="1251" d="M121 801q0 444 149 620q123 145 361 146q223 0 346 -137q98 -109 133 -308q23 -124 23 -323q0 -408 -97 -600q-119 -236 -409 -236q-289 0 -408 236q-98 197 -98 602zM297 815q0 -379 59 -524q72 -174 271 -174q207 0 276 192q53 147 53 518q0 279 -71 422 q-82 164 -260 164q-150 0 -230 -117q-98 -143 -98 -481z" />
<glyph unicode="P" horiz-adv-x="1138" d="M176 0v1536h404q125 0 214 -22.5t156 -90.5q53 -53 83 -135t30 -176q0 -117 -28.5 -202t-84.5 -140q-74 -74 -174 -96.5t-315 -22.5h-115v-651h-170zM346 805h162q213 0 296 61.5t83 233.5q0 160 -79 221t-257 61h-205v-577z" />
<glyph unicode="Q" horiz-adv-x="1251" d="M121 815q0 334 86 508q121 244 416 244q219 0 344 -129q100 -102 139 -297q29 -139 29 -338q0 -166 -23 -320q-31 -213 -96 -299l176 -147l-86 -107l-172 144q-49 -49 -133 -80t-176 -31q-293 0 -410 242q-94 195 -94 610zM297 727q0 -334 88 -481q78 -129 233 -129 q59 0 100.5 11t88.5 46l-152 121l90 113l144 -115q29 55 49 188.5t20 231.5q0 379 -61 526q-72 174 -270 174q-197 0 -269 -168q-61 -143 -61 -518z" />
<glyph unicode="R" horiz-adv-x="1251" d="M176 0v1536h391q268 0 389 -88q131 -96 131 -322q0 -150 -73.5 -245t-220.5 -117q109 -14 156.5 -42t80.5 -93q20 -41 31.5 -113t11.5 -162q0 -88 12.5 -170t32.5 -121q12 -27 39 -28v-35h-199q-20 55 -36.5 164.5t-16.5 232.5q0 106 -41 174q-63 104 -217 105h-301v-676 h-170zM346 829h266q131 0 207 58q92 70 92 213q0 164 -96 231q-74 51 -219 51h-250v-553z" />
<glyph unicode="S" horiz-adv-x="1138" d="M104 487h170v-65q0 -152 60 -223q68 -82 231 -82q137 0 215 69.5t78 196.5q0 119 -31.5 174t-117.5 86l-285 105q-166 61 -227 137q-72 90 -72 266q0 178 113 293q121 123 319 123q197 0 314.5 -98.5t117.5 -284.5v-51h-170l2 30q0 111 -65.5 180.5t-173.5 69.5 q-141 0 -211 -63.5t-70 -208.5q0 -88 39 -140q33 -43 113 -73l258 -99q188 -72 255.5 -156.5t67.5 -246.5q0 -211 -124 -337t-355 -126q-115 0 -194.5 30t-139.5 89q-70 70 -93.5 155t-23.5 250z" />
<glyph unicode="T" d="M31 1382v154h964v-154h-397v-1382h-170v1382h-397z" />
<glyph unicode="U" horiz-adv-x="1251" d="M166 371v1165h170v-1120q0 -143 61 -215q72 -84 230 -84q291 0 291 301v1118h169v-1161q0 -219 -141 -324q-119 -88 -317 -88q-227 0 -345 107.5t-118 300.5z" />
<glyph unicode="V" horiz-adv-x="1138" d="M23 1536h188l354 -1413l363 1413h188l-442 -1536h-211z" />
<glyph unicode="W" horiz-adv-x="1705" d="M35 1536h188l207 -1092q8 -45 17.5 -116.5t21.5 -204.5q4 20 20.5 144t28.5 179l230 1090h210l203 -1059q12 -57 28.5 -181t16.5 -173q14 96 25.5 181t32.5 181l219 1051h188l-360 -1536h-211l-211 1073q-10 47 -24.5 168t-14.5 172q-4 -68 -18.5 -169t-30.5 -181 l-228 -1063h-211z" />
<glyph unicode="X" horiz-adv-x="1138" d="M35 0l436 788l-424 748h201l321 -600l322 600h201l-422 -748l434 -788h-209l-326 643l-331 -643h-203z" />
<glyph unicode="Y" horiz-adv-x="1138" d="M23 1536h188l358 -770l361 770h188l-465 -940v-596h-170v596z" />
<glyph unicode="Z" d="M57 0v147l725 1235h-706v154h882v-147l-725 -1235h736v-154h-912z" />
<glyph unicode="[" horiz-adv-x="681" d="M205 -428v1964h358v-123h-198v-1714h198v-127h-358z" />
<glyph unicode="\" horiz-adv-x="512" d="M-63 1536h118l520 -1536h-118z" />
<glyph unicode="]" horiz-adv-x="681" d="M119 -301h198v1714h-198v123h358v-1964h-358v127z" />
<glyph unicode="^" d="M143 682l318 854h100l322 -854h-111l-262 692l-258 -692h-109z" />
<glyph unicode="_" d="M0 -125h1024v-119h-1024v119z" />
<glyph unicode="`" horiz-adv-x="681" d="M72 1567h223l182 -289h-137z" />
<glyph unicode="a" horiz-adv-x="909" d="M63 301q0 139 78 219q39 39 119 74l244 98q66 27 81 49.5t15 92.5q0 106 -31 147q-39 51 -147 51q-96 0 -132 -38t-36 -140v-23h-145v27q0 311 331 311q166 0 248 -86q68 -72 68 -194v-696q0 -33 7 -54.5t52 -21.5l39 2v-119q-18 -4 -33.5 -7t-40.5 -3q-86 0 -121.5 30.5 t-46.5 133.5q-37 -84 -107.5 -134.5t-154.5 -50.5q-145 0 -216 80t-71 252zM231 291q0 -184 154 -185q84 0 143.5 60.5t59.5 171.5v276q-10 -6 -53 -28q-29 -14 -72 -35l-123 -55q-109 -49 -109 -205z" />
<glyph unicode="b" d="M154 2v1534h161v-514q53 80 110.5 113.5t131.5 33.5q174 0 266 -141t92 -387q0 -309 -63 -467q-82 -205 -283 -205q-90 0 -153.5 38t-110.5 128l-4 -133h-147zM305 512q0 -190 37 -279q53 -127 195 -127q123 0 172 142q39 110 39 350q0 203 -43 307q-53 127 -175 127 q-133 0 -186 -135q-39 -100 -39 -285v-100z" />
<glyph unicode="c" horiz-adv-x="909" d="M90 557q0 348 115 492q95 120 273 120h3q166 0 256 -112q84 -104 84 -277h-151q0 252 -189 252q-143 0 -192 -172q-31 -106 -31 -311q0 -190 29 -283q49 -160 188 -160q102 0 151.5 68t49.5 223h153q0 -174 -67 -284q-88 -143 -277 -144q-246 0 -335 201q-59 131 -60 387 z" />
<glyph unicode="d" d="M98 567v58q0 256 91.5 400t248.5 144q72 0 125 -24q74 -35 139 -123l5 514h161v-1536h-155v150q-55 -98 -114.5 -139.5t-168.5 -41.5q-63 0 -112.5 20.5t-86.5 57.5q-84 84 -114 256q-18 102 -19 264zM262 559q0 -223 35 -317q51 -135 192 -136q106 0 166 109 q52 95 52 236v155q0 223 -54.5 324.5t-173.5 101.5q-131 0 -182 -158q-35 -109 -35 -315z" />
<glyph unicode="e" horiz-adv-x="909" d="M88 571q0 254 78 410q94 188 287 188q190 0 274 -122q78 -115 78 -353l4 -139h-553q0 -63 2 -146t23 -157q39 -145 178 -146q96 0 143 62.5t47 161.5v49h152v-33q0 -160 -82 -262q-92 -115 -258 -115q-188 0 -280.5 144.5t-92.5 457.5zM256 688h385l-4 88q0 119 -39 182 q-45 74 -143 74q-121 0 -166 -110q-33 -80 -33 -234z" />
<glyph unicode="f" horiz-adv-x="569" d="M25 1001v138h163v121q0 141 43 200q57 80 218 80l81 -4v-137l-59 4q-72 0 -95.5 -33t-23.5 -117v-114h178v-138h-178v-1001h-162v1001h-165z" />
<glyph unicode="g" d="M92 567q0 293 93.5 447.5t269.5 154.5q80 0 144.5 -38.5t107.5 -120.5l4 129h161v-1051q0 -106 -33.5 -208.5t-99.5 -168.5q-45 -45 -110.5 -71.5t-153.5 -26.5q-309 0 -342 278h158q8 -68 49 -104.5t121 -36.5q143 0 201 92q45 74 45 232v59q-53 -82 -103 -119 q-61 -45 -147 -45q-193 0 -283 162q-82 147 -82 436zM260 580q0 -250 50 -362t159 -112q152 0 207 162q35 102 35 301q0 256 -60.5 359.5t-169.5 103.5q-131 0 -184 -158q-37 -111 -37 -294z" />
<glyph unicode="h" d="M150 0v1536h161v-522q66 82 130.5 118.5t160.5 36.5q133 0 204 -76.5t71 -211.5v-881h-162v836q0 84 -29 131q-40 65 -136 65h-3q-59 0 -97 -18.5t-73 -52.5q-43 -43 -54.5 -88.5t-11.5 -137.5v-735h-161z" />
<glyph unicode="i" horiz-adv-x="454" d="M147 0v1139h162v-1139h-162zM147 1331v205h162v-205h-162z" />
<glyph unicode="j" horiz-adv-x="454" d="M27 -240h26q25 0 43.5 4.5t33.5 19.5t19.5 49t4.5 108v1198h161v-1182q0 -199 -59 -272.5t-229 -73.5v149zM154 1331v205h161v-205h-161z" />
<glyph unicode="k" horiz-adv-x="909" d="M141 0v1536h162v-928l393 531h193l-352 -443l362 -696h-188l-285 567l-123 -161v-406h-162z" />
<glyph unicode="l" horiz-adv-x="454" d="M147 0v1536h162v-1536h-162z" />
<glyph unicode="m" horiz-adv-x="1593" d="M156 0v1139h155v-146q49 78 111 123q74 53 166 53q88 0 157.5 -47t110.5 -133q59 90 131 135t170 45q66 0 123 -23.5t95 -61t51.5 -99t13.5 -137.5v-848h-162v836q0 98 -33 143q-39 53 -135 53q-39 0 -83 -16.5t-83 -54.5q-66 -66 -65 -193v-768h-162v829q0 98 -33 146 q-41 57 -133 57q-61 0 -105 -20q-31 -14 -73 -58q-55 -55 -56 -161v-793h-161z" />
<glyph unicode="n" d="M150 0v1139h157v-125q63 74 119 108q76 47 168 47q150 0 223 -90q59 -74 60 -192v-887h-162v836q0 111 -49 157q-41 39 -119 39q-98 0 -170 -71q-35 -35 -50.5 -80t-15.5 -115v-766h-161z" />
<glyph unicode="o" d="M104 604q0 262 93 406q101 159 314 159h3q186 0 291 -131q115 -145 115 -434q0 -295 -78 -446q-96 -188 -324 -189q-190 0 -289 119q-125 152 -125 516zM272 555q0 -227 55.5 -338t184.5 -111t184.5 108t55.5 333q0 260 -54.5 372.5t-187.5 112.5q-139 0 -195 -141 q-43 -111 -43 -336z" />
<glyph unicode="p" d="M147 -385v1524h156v-127q41 84 127 127q59 30 113 30h4q188 0 287 -168q81 -139 81 -344q0 -328 -75 -493q-88 -195 -289 -195q-80 0 -134.5 34t-107.5 116v-504h-162zM309 571q0 -225 35 -323q49 -141 188 -142q117 0 166.5 125t49.5 361q0 203 -48 311 q-55 129 -176 129q-127 0 -178 -147q-37 -106 -37 -314z" />
<glyph unicode="q" d="M111 614q0 223 77 375q92 180 263 180q176 0 262 -149l4 119h155v-1516h-161v502q-59 -80 -113.5 -118t-130.5 -38q-96 0 -162.5 39t-110.5 127t-63.5 236.5t-19.5 242.5zM279 588q0 -223 36 -332q51 -150 179 -150q168 0 204 240q13 82 13 234q0 205 -29 297 q-47 155 -182 155h-2q-125 0 -179 -141q-40 -106 -40 -294v-9z" />
<glyph unicode="r" horiz-adv-x="681" d="M166 0v1139h156v-187q49 104 119.5 152.5t170.5 48.5l47 -2v-160l-65 6q-133 0 -205 -94q-61 -82 -61 -205v-698h-162z" />
<glyph unicode="s" horiz-adv-x="909" d="M88 285v47h154q0 -102 24 -148q43 -78 170 -78q111 0 163 48.5t52 142.5q0 100 -88 152q-14 8 -175 68.5t-218 115.5q-78 74 -78 213q0 152 94.5 237.5t239.5 85.5q201 0 287 -106q66 -82 65 -229h-157v32q0 92 -48.5 129t-132.5 37q-92 0 -136 -46t-44 -130 q0 -88 72 -137q27 -18 164 -74q190 -78 249 -133q74 -70 74 -207q0 -119 -71 -209q-100 -127 -312 -127q-184 0 -276 107q-72 84 -72 209z" />
<glyph unicode="t" horiz-adv-x="569" d="M18 1001v138h158v309h160v-309h190v-138h-188v-788q0 -43 11 -59.5t67 -16.5h106v-137h-192q-80 0 -113 35q-41 43 -41 155v811h-158z" />
<glyph unicode="u" d="M158 264v875h161v-881q0 -84 31 -118t121 -34q94 0 165 71t71 229v733h161v-1139h-161v150q-41 -78 -113 -129.5t-162 -51.5q-162 0 -229 107q-45 72 -45 188z" />
<glyph unicode="v" horiz-adv-x="909" d="M27 1139h168l258 -1002l262 1002h168l-342 -1139h-176z" />
<glyph unicode="w" horiz-adv-x="1366" d="M39 1139h168l207 -1002l184 1002h168l192 -1002l203 1002h168l-285 -1139h-167l-193 1001l-184 -1001h-168z" />
<glyph unicode="x" horiz-adv-x="909" d="M18 0l349 586l-328 553h168l254 -410l252 410h168l-328 -553l340 -586h-168l-266 455l-273 -455h-168z" />
<glyph unicode="y" horiz-adv-x="909" d="M10 1139h168l256 -987l268 987h168l-366 -1180q-57 -182 -111 -250q-78 -98 -225 -98q-49 0 -117 18v144q53 -25 121 -25q63 0 102 29.5t62 91.5l37 104z" />
<glyph unicode="z" horiz-adv-x="796" d="M49 0v127l529 879h-506v133h673v-133l-528 -873h533v-133h-701z" />
<glyph unicode="{" horiz-adv-x="561" d="M14 672q94 18 144 69q20 20 30.5 50t10.5 67v426q0 117 55 174q74 78 254 78h37q-98 -33 -137 -74q-45 -49 -46 -151v-398q0 -92 -34 -145q-47 -72 -170 -92q117 -31 160.5 -93.5t43.5 -185.5v-362q0 -98 48 -152q39 -43 135 -73l-51 -5q-174 0 -242 82q-53 66 -53 215 v381q0 35 -9.5 65t-27.5 48q-27 27 -68 48.5t-80 27.5z" />
<glyph unicode="|" horiz-adv-x="512" d="M190 0v1536h132v-1536h-132z" />
<glyph unicode="}" horiz-adv-x="561" d="M16 -195q98 33 140.5 78t42.5 148v397q0 92 34 145q47 72 170 93q-117 31 -160.5 93t-43.5 185v363q0 98 -47 151q-39 43 -136 74l52 4q174 0 241 -82q53 -66 53 -215v-381q0 -35 9.5 -64.5t27.5 -48.5q27 -27 68 -48t80 -27q-95 -19 -144 -70q-20 -20 -30.5 -50 t-10.5 -67v-426q0 -117 -55 -174q-74 -78 -254 -78h-37z" />
<glyph unicode="~" d="M90 438q51 117 98 170q61 72 142 72q63 0 196 -71.5t174 -71.5t78 34q47 43 88 136l70 -97q-100 -227 -231 -227q-57 0 -144 43q-199 98 -231 98q-92 0 -170 -184z" />
<glyph unicode="&#xa0;" />
<glyph unicode="&#xa1;" horiz-adv-x="681" d="M248 104l47 691h92l47 -691v-471h-186v471zM248 965v204h186v-204h-186z" />
<glyph unicode="&#xa2;" d="M119 547q0 193 39 321q53 174 172 234q35 16 80 26.5t102 10.5l55 -6l54 233h102l-59 -260q104 -49 147 -145q29 -66 41 -199h-160q0 88 -22 141q-14 35 -39 58l-191 -846q4 -2 19.5 -5.5t46.5 -3.5q66 0 101.5 23t62.5 76q16 31 25.5 79t9.5 105h151v-37q-8 -43 -10 -65 q-23 -152 -96 -226q-92 -92 -242 -92q-25 0 -52.5 4t-45.5 9l-60 -263h-98l65 293q-47 27 -73.5 53.5t-48.5 71.5q-37 74 -56.5 173.5t-19.5 236.5zM287 502q0 -117 12 -188.5t55 -135.5l185 823l-39 5q-104 0 -152 -93q-35 -68 -48 -176t-13 -235z" />
<glyph unicode="&#xa3;" d="M61 94q121 100 177 187q63 100 63 223q0 43 -12.5 92t-32.5 96h-195v90h154q-53 96 -81 179t-28 165q0 127 56.5 221.5t159.5 145.5q86 43 227 43q195 0 302 -115.5t107 -320.5l-2 -31h-170v53q0 131 -70.5 195.5t-185.5 64.5q-117 0 -182 -71.5t-65 -202.5 q0 -70 25.5 -147.5t80.5 -178.5h336v-90h-297q37 -66 37 -153q0 -113 -64.5 -218.5t-169.5 -189.5l5 -4q94 61 221 61q39 0 59.5 -3t58.5 -15q72 -20 114 -29.5t71 -9.5q41 0 81 14.5t95 53.5l57 -138q-61 -45 -111.5 -63t-133.5 -18q-51 0 -123 22q-166 51 -240 51 q-66 0 -129 -24q-45 -18 -111 -60z" />
<glyph unicode="&#xa4;" d="M49 614q0 84 12 138q20 86 76 172l-80 88l97 108l79 -88q59 49 131 75t160 26q133 0 262 -101l82 88l97 -108l-78 -88q41 -74 63.5 -148t22.5 -170q0 -68 -15 -125q-20 -84 -71 -170l78 -86l-97 -108l-82 88q-68 -53 -139.5 -78t-142.5 -25q-137 0 -271 103l-79 -88 l-97 108l80 86q-45 76 -66.5 150t-21.5 153zM197 614q0 -154 89 -259t222 -105q135 0 226 105.5t91 265.5q0 145 -80 249q-86 115 -225 115q-154 0 -238.5 -105.5t-84.5 -265.5z" />
<glyph unicode="&#xa5;" d="M-35 1536h205l342 -770l356 770h193l-473 -940v-59h282v-91h-282v-155h282v-90h-282v-201h-168v201h-283v90h283v155h-283v91h283v59z" />
<glyph unicode="&#xa6;" horiz-adv-x="512" d="M190 0v614h132v-614h-132zM190 922v614h132v-614h-132z" />
<glyph unicode="&#xa7;" d="M72 616q0 211 231 322q-70 47 -106.5 113.5t-36.5 156.5q0 150 102.5 239t261.5 89q160 0 252 -94t92 -266h-168q0 111 -52 165t-142 54q-63 0 -103.5 -24.5t-64.5 -72.5q-10 -23 -13 -43t-3 -59q0 -53 50 -101t238 -173q209 -139 234 -162q110 -103 110 -240 q0 -96 -54 -178t-165 -158q80 -63 114 -119.5t34 -148.5q0 -160 -101.5 -251t-287.5 -91q-174 0 -269.5 101.5t-95.5 258.5v23h166q0 -115 53 -180.5t166 -65.5q92 0 148.5 48t56.5 132q0 72 -37 119q-51 66 -223 178l-154 101q-135 90 -188 168q-45 68 -45 159zM236 637 q0 -51 29.5 -91t127.5 -112q123 -86 246 -170q96 80 119 115q33 51 33 117q0 59 -39 106q-23 29 -107 94q-51 41 -149 107q-6 4 -97 63q-104 -70 -139 -127q-25 -41 -24 -102z" />
<glyph unicode="&#xa8;" horiz-adv-x="681" d="M106 1331v205h162v-205h-162zM414 1331v205h161v-205h-161z" />
<glyph unicode="&#xa9;" horiz-adv-x="1638" d="M16 764q0 336 235.5 569.5t569.5 233.5q332 0 566.5 -234.5t234.5 -566.5t-233.5 -567.5t-569.5 -235.5q-332 0 -567.5 233.5t-235.5 567.5zM137 764q0 -283 200 -482.5t482 -199.5q287 0 484.5 197.5t197.5 484.5q0 285 -197.5 484.5t-484.5 199.5q-283 0 -482.5 -199.5 t-199.5 -484.5zM410 776q0 201 118.5 330t323.5 129q137 0 238 -72q113 -82 139 -233h-119q-18 100 -96 157q-68 49 -156 50q-158 0 -243 -102.5t-85 -256.5q0 -160 89.5 -266t234.5 -106q100 0 172 57t84 158h119q-10 -129 -116.5 -221.5t-254.5 -92.5q-203 0 -325.5 133 t-122.5 336z" />
<glyph unicode="&#xaa;" horiz-adv-x="614" d="M51 625v82h514v-82h-514zM51 1040q0 63 26.5 108.5t98.5 72.5l172 63q33 12 42 23.5t9 35.5v37q0 102 -112 103q-70 0 -91.5 -23.5t-21.5 -95.5h-94v16q0 86 45 131q55 55 172 56q102 0 153.5 -46t51.5 -124v-422q0 -27 12 -35q8 -6 31 -6l20 2v-72l-57 -4 q-55 0 -74.5 19.5t-25.5 76.5q-25 -49 -71 -79.5t-99 -30.5q-102 0 -144.5 52t-42.5 142zM162 1036q0 -109 98 -108q59 0 95 40t36 97v168q-23 -12 -69 -33q-94 -39 -101 -43q-33 -16 -46 -47t-13 -74z" />
<glyph unicode="&#xab;" d="M174 575v125l309 314v-170l-204 -209l204 -209v-170zM541 575v125l309 314v-170l-205 -209l205 -209v-170z" />
<glyph unicode="&#xac;" d="M90 643v143h846v-546h-143v403h-703z" />
<glyph unicode="&#xad;" d="M90 449v143h846v-143h-846z" />
<glyph unicode="&#xae;" horiz-adv-x="1638" d="M16 764q0 336 235.5 569.5t569.5 233.5q332 0 566.5 -234.5t234.5 -566.5t-233.5 -567.5t-569.5 -235.5q-332 0 -567.5 233.5t-235.5 567.5zM137 764q0 -283 200 -482.5t482 -199.5q287 0 484.5 197.5t197.5 484.5q0 285 -197.5 484.5t-484.5 199.5q-283 0 -482.5 -199.5 t-199.5 -484.5zM520 317v902h418q55 0 89 -5.5t71 -23.5q66 -33 101.5 -86t35.5 -131q0 -104 -64 -168q-74 -74 -219 -74l269 -414h-134l-253 414h-199v-414h-115zM635 817h256q106 0 160 31q69 41 69 137q0 86 -69 121q-53 27 -156 27h-260v-316z" />
<glyph unicode="&#xaf;" horiz-adv-x="681" d="M20 1346v118h642v-118h-642z" />
<glyph unicode="&#xb0;" horiz-adv-x="819" d="M102 1231q0 125 90.5 215t217.5 90q129 0 218 -91t89 -218q0 -121 -86 -213t-221 -92q-133 0 -220.5 91t-87.5 218zM229 1229q0 -76 52.5 -128t130.5 -52q72 0 125 51t53 129q0 72 -52.5 126t-129.5 54q-76 0 -127.5 -53t-51.5 -127z" />
<glyph unicode="&#xb1;" d="M90 0v143h846v-143h-846zM90 571v144h350v319h144v-319h352v-144h-352v-325h-144v325h-350z" />
<glyph unicode="&#xb2;" horiz-adv-x="614" d="M39 614q0 115 47 213q33 68 76 107l174 153q53 47 74.5 92.5t21.5 102.5q0 78 -30.5 113t-100.5 35q-68 0 -97.5 -45.5t-29.5 -135.5v-26h-127v51q0 131 71.5 196.5t194.5 65.5q115 0 183.5 -64.5t68.5 -191.5q0 -88 -33.5 -149.5t-123.5 -137.5l-158 -133 q-53 -45 -69.5 -72.5t-16.5 -66.5h411v-107h-536z" />
<glyph unicode="&#xb3;" horiz-adv-x="614" d="M35 868v17h121l-2 -29q0 -68 37.5 -112t115.5 -44q66 0 105 39t39 119q0 111 -46.5 142.5t-168.5 31.5v115h57q70 0 99.5 29.5t29.5 113.5q0 78 -28.5 109t-94.5 31q-80 0 -109 -56q-18 -35 -18 -110h-119v20q0 104 56 172q66 80 194 80q113 0 181.5 -60.5t68.5 -170.5 q0 -162 -139 -205q86 -18 126 -75.5t40 -143.5q0 -137 -71 -211t-210 -74q-264 0 -264 272z" />
<glyph unicode="&#xb4;" horiz-adv-x="681" d="M205 1278l182 289h223l-268 -289h-137z" />
<glyph unicode="&#xb5;" d="M154 -387v1526h161v-889q0 -80 34 -112t114 -32q43 0 86 15.5t76 48.5q43 43 60 102.5t17 133.5v733h162v-1139h-162v150q-39 -80 -112.5 -130.5t-157.5 -50.5q-33 0 -69.5 16.5t-47.5 20.5v-393h-161z" />
<glyph unicode="&#xb6;" horiz-adv-x="901" d="M0 1139q0 123 53 222t142 144q61 31 206 31h400v-1774h-162v1637h-156v-1637h-161v988q-135 0 -228.5 116.5t-93.5 272.5z" />
<glyph unicode="&#xb7;" horiz-adv-x="512" d="M164 418v205h186v-205h-186z" />
<glyph unicode="&#xb8;" horiz-adv-x="681" d="M135 -416l35 82q33 -12 68.5 -21.5t70.5 -9.5q51 0 82 26t31 52q0 37 -27.5 62.5t-72.5 25.5q-18 0 -29 -2q-2 0 -51 -14l-35 39l129 176h98l-94 -127q18 6 49 6q86 0 136 -39.5t50 -109.5q0 -94 -75 -146q-66 -43 -172 -43q-55 0 -121 19q-31 8 -72 24z" />
<glyph unicode="&#xb9;" horiz-adv-x="614" d="M137 1278v88q117 0 171 35t67 135h102v-922h-127v664h-213z" />
<glyph unicode="&#xba;" horiz-adv-x="614" d="M41 625v82h530v-82h-530zM41 1221q0 135 43 221q29 57 87 91t136 34q74 0 134.5 -34t90.5 -95q39 -78 39 -213q0 -195 -64.5 -287t-189.5 -92q-166 0 -229 125q-47 96 -47 250zM152 1194q0 -133 36.5 -199.5t118.5 -66.5q84 0 119 64.5t35 199.5q0 152 -27 213 q-35 80 -127 80q-86 0 -120.5 -67.5t-34.5 -223.5z" />
<glyph unicode="&#xbb;" d="M174 256v170l205 209l-205 209v170l309 -320v-125zM541 256v170l204 209l-204 209v170l309 -320v-125z" />
<glyph unicode="&#xbc;" horiz-adv-x="1536" d="M70 1278v88q117 0 171 35t66 135h103v-922h-127v664h-213zM293 0l926 1536h129l-926 -1536h-129zM903 219v111l367 592h119v-600h77v-103h-77v-219h-123v219h-363zM989 322h277v440z" />
<glyph unicode="&#xbd;" horiz-adv-x="1536" d="M86 1278v88q117 0 171 35t67 135h102v-922h-127v664h-213zM186 0l926 1536h129l-926 -1536h-129zM915 0q0 115 48 213q33 68 75 106l174 154q53 47 75 92t22 103q0 78 -31 112.5t-100 34.5q-68 0 -97.5 -45t-29.5 -135v-27h-127v51q0 131 71.5 197t194.5 66 q115 0 183.5 -64.5t68.5 -191.5q0 -88 -34 -149.5t-124 -137.5l-158 -133q-53 -45 -69.5 -73t-16.5 -67h412v-106h-537z" />
<glyph unicode="&#xbe;" horiz-adv-x="1536" d="M43 868v17h121l-2 -29q0 -68 38 -112t115 -44q66 0 105 39t39 119q0 111 -46 142.5t-169 31.5v115h57q70 0 99.5 29.5t29.5 113.5q0 78 -28.5 109t-94.5 31q-80 0 -108 -56q-18 -35 -19 -110h-119v20q0 104 56 172q66 80 194 80q113 0 181.5 -60.5t68.5 -170.5 q0 -162 -139 -205q86 -18 126 -75.5t40 -143.5q0 -137 -71 -211t-210 -74q-264 0 -264 272zM322 0l925 1536h129l-925 -1536h-129zM932 219v111l366 592h119v-600h78v-103h-78v-219h-123v219h-362zM1018 322h276v440z" />
<glyph unicode="&#xbf;" d="M78 -2q0 135 59 240q25 41 130.5 169t119.5 150q49 74 49 141v95h182q0 -100 -7 -153.5t-30.5 -100.5t-70.5 -105q-27 -33 -82 -92q-78 -84 -115 -149q-49 -88 -49 -181q0 -111 52.5 -184.5t152.5 -73.5q141 0 203 94q51 80 51 246h178v-41q0 -182 -90 -301 q-109 -141 -315 -141q-193 0 -305.5 106.5t-112.5 280.5zM432 940v205h186v-205h-186z" />
<glyph unicode="&#xc0;" horiz-adv-x="1138" d="M23 0l438 1536h225l432 -1536h-188l-121 442h-485l-113 -442h-188zM301 1964h223l182 -289h-137zM365 596h405l-199 817z" />
<glyph unicode="&#xc1;" horiz-adv-x="1138" d="M23 0l438 1536h225l432 -1536h-188l-121 442h-485l-113 -442h-188zM365 596h405l-199 817zM434 1675l182 289h223l-268 -289h-137z" />
<glyph unicode="&#xc2;" horiz-adv-x="1138" d="M23 0l438 1536h225l432 -1536h-188l-121 442h-485l-113 -442h-188zM272 1675l203 289h190l205 -289h-164l-135 192l-135 -192h-164zM365 596h405l-199 817z" />
<glyph unicode="&#xc3;" horiz-adv-x="1138" d="M23 0l438 1536h225l432 -1536h-188l-121 442h-485l-113 -442h-188zM223 1693q10 102 65.5 163t139.5 61q47 0 190 -52q74 -27 109 -26q33 0 61.5 28.5t32.5 63.5h98q0 -88 -53 -152q-59 -72 -152 -71q-49 0 -190 51q-74 27 -105 27q-37 0 -63.5 -25t-34.5 -68h-98z M365 596h405l-199 817z" />
<glyph unicode="&#xc4;" horiz-adv-x="1138" d="M23 0l438 1536h225l432 -1536h-188l-121 442h-485l-113 -442h-188zM335 1728v205h162v-205h-162zM365 596h405l-199 817zM643 1728v205h161v-205h-161z" />
<glyph unicode="&#xc5;" horiz-adv-x="1138" d="M23 0l438 1536h225l432 -1536h-188l-121 442h-485l-113 -442h-188zM360 1820q0 84 63.5 145.5t145.5 61.5q86 0 147.5 -59.5t61.5 -147.5q0 -86 -61.5 -147.5t-145.5 -61.5q-88 0 -149.5 61.5t-61.5 147.5zM365 596h405l-199 817zM442 1820q0 -51 38 -89t91 -38 q47 0 86 39t39 88t-38 87t-89 38q-49 0 -88 -39t-39 -86z" />
<glyph unicode="&#xc6;" horiz-adv-x="1705" d="M0 0l750 1536h858v-154h-566v-508h527v-153h-527v-567h560v-154h-728v440h-477l-204 -440h-193zM469 594h403v788h-28z" />
<glyph unicode="&#xc7;" horiz-adv-x="1138" d="M109 760q0 217 24 354q37 207 131 316q119 137 330 137q213 0 332 -144q104 -127 104 -317v-31h-170q0 180 -80 264q-70 74 -200 74q-68 0 -126.5 -36t-95.5 -109q-47 -94 -61 -226.5t-14 -379.5q0 -545 305 -545q147 0 215 123q57 106 57 315h170l-18 -203 q-14 -150 -113 -260q-115 -129 -299 -129q-209 0 -324 115q-100 100 -139 295q-29 143 -28 387zM364 -416l35 82q33 -12 68.5 -21.5t70.5 -9.5q51 0 82 26t31 52q0 37 -27.5 62.5t-72.5 25.5q-18 0 -29 -2q-2 0 -51 -14l-35 39l129 176h98l-94 -127q18 6 49 6 q86 0 136 -39.5t50 -109.5q0 -94 -75 -146q-66 -43 -172 -43q-55 0 -121 19q-31 8 -72 24z" />
<glyph unicode="&#xc8;" d="M152 0v1536h768v-154h-598v-508h561v-153h-561v-567h602v-154h-772zM244 1964h223l182 -289h-137z" />
<glyph unicode="&#xc9;" d="M152 0v1536h768v-154h-598v-508h561v-153h-561v-567h602v-154h-772zM377 1675l182 289h223l-268 -289h-137z" />
<glyph unicode="&#xca;" d="M152 0v1536h768v-154h-598v-508h561v-153h-561v-567h602v-154h-772zM215 1675l203 289h190l205 -289h-164l-135 192l-135 -192h-164z" />
<glyph unicode="&#xcb;" d="M152 0v1536h768v-154h-598v-508h561v-153h-561v-567h602v-154h-772zM278 1728v205h162v-205h-162zM586 1728v205h161v-205h-161z" />
<glyph unicode="&#xcc;" horiz-adv-x="569" d="M17 1964h223l182 -289h-137zM201 0v1536h170v-1536h-170z" />
<glyph unicode="&#xcd;" horiz-adv-x="569" d="M150 1675l182 289h223l-268 -289h-137zM201 0v1536h170v-1536h-170z" />
<glyph unicode="&#xce;" horiz-adv-x="569" d="M-12 1675l203 289h190l205 -289h-164l-135 192l-135 -192h-164zM201 0v1536h170v-1536h-170z" />
<glyph unicode="&#xcf;" horiz-adv-x="569" d="M51 1728v205h162v-205h-162zM201 0v1536h170v-1536h-170zM359 1728v205h161v-205h-161z" />
<glyph unicode="&#xd0;" horiz-adv-x="1251" d="M-12 705v161h180v670h414q262 0 391 -141q151 -166 151 -555q0 -524 -184 -717q-119 -123 -348 -123h-424v705h-180zM338 154h258q78 0 130 15t95 58q66 66 96.5 181t30.5 303q0 223 -28.5 373.5t-100.5 222.5q-41 41 -95 58t-120 17h-266v-516h215v-161h-215v-551z" />
<glyph unicode="&#xd1;" horiz-adv-x="1251" d="M158 0v1536h276l414 -1192q29 -80 48 -142.5t28 -90.5v151v1274h170v-1536h-279l-430 1229q-20 59 -35.5 121.5t-21.5 109.5v-211v-1249h-170zM279 1693q10 102 65.5 163t139.5 61q47 0 190 -52q74 -27 109 -26q33 0 61.5 28.5t32.5 63.5h98q0 -88 -53 -152 q-59 -72 -152 -71q-49 0 -190 51q-74 27 -105 27q-37 0 -63.5 -25t-34.5 -68h-98z" />
<glyph unicode="&#xd2;" horiz-adv-x="1251" d="M121 801q0 444 149 620q123 145 361 146q223 0 346 -137q98 -109 133 -308q23 -124 23 -323q0 -408 -97 -600q-119 -236 -409 -236q-289 0 -408 236q-98 197 -98 602zM297 815q0 -379 59 -524q72 -174 271 -174q207 0 276 192q53 147 53 518q0 279 -71 422 q-82 164 -260 164q-150 0 -230 -117q-98 -143 -98 -481zM357 1964h223l182 -289h-137z" />
<glyph unicode="&#xd3;" horiz-adv-x="1251" d="M121 801q0 444 149 620q123 145 361 146q223 0 346 -137q98 -109 133 -308q23 -124 23 -323q0 -408 -97 -600q-119 -236 -409 -236q-289 0 -408 236q-98 197 -98 602zM297 815q0 -379 59 -524q72 -174 271 -174q207 0 276 192q53 147 53 518q0 279 -71 422 q-82 164 -260 164q-150 0 -230 -117q-98 -143 -98 -481zM490 1675l182 289h223l-268 -289h-137z" />
<glyph unicode="&#xd4;" horiz-adv-x="1251" d="M121 801q0 444 149 620q123 145 361 146q223 0 346 -137q98 -109 133 -308q23 -124 23 -323q0 -408 -97 -600q-119 -236 -409 -236q-289 0 -408 236q-98 197 -98 602zM297 815q0 -379 59 -524q72 -174 271 -174q207 0 276 192q53 147 53 518q0 279 -71 422 q-82 164 -260 164q-150 0 -230 -117q-98 -143 -98 -481zM328 1675l203 289h190l205 -289h-164l-135 192l-135 -192h-164z" />
<glyph unicode="&#xd5;" horiz-adv-x="1251" d="M121 801q0 444 149 620q123 145 361 146q223 0 346 -137q98 -109 133 -308q23 -124 23 -323q0 -408 -97 -600q-119 -236 -409 -236q-289 0 -408 236q-98 197 -98 602zM279 1693q10 102 65.5 163t139.5 61q47 0 190 -52q74 -27 109 -26q33 0 61.5 28.5t32.5 63.5h98 q0 -88 -53 -152q-59 -72 -152 -71q-49 0 -190 51q-74 27 -105 27q-37 0 -63.5 -25t-34.5 -68h-98zM297 815q0 -379 59 -524q72 -174 271 -174q207 0 276 192q53 147 53 518q0 279 -71 422q-82 164 -260 164q-150 0 -230 -117q-98 -143 -98 -481z" />
<glyph unicode="&#xd6;" horiz-adv-x="1251" d="M121 801q0 444 149 620q123 145 361 146q223 0 346 -137q98 -109 133 -308q23 -124 23 -323q0 -408 -97 -600q-119 -236 -409 -236q-289 0 -408 236q-98 197 -98 602zM297 815q0 -379 59 -524q72 -174 271 -174q207 0 276 192q53 147 53 518q0 279 -71 422 q-82 164 -260 164q-150 0 -230 -117q-98 -143 -98 -481zM391 1728v205h162v-205h-162zM699 1728v205h161v-205h-161z" />
<glyph unicode="&#xd7;" d="M90 199l322 321l-322 322l103 100l319 -321l324 323l100 -102l-322 -322l322 -321l-102 -101l-322 322l-324 -322z" />
<glyph unicode="&#xd8;" horiz-adv-x="1251" d="M59 -39l156 250q-53 106 -73.5 252.5t-20.5 347.5q0 442 149 614q123 141 361 142q117 0 202 -35t142 -98l123 196l76 -45l-144 -229q66 -113 90 -285q16 -113 17 -266q0 -408 -99 -602q-121 -240 -413 -240q-119 0 -210 43t-149 119l-131 -213zM297 821q0 -113 8 -228.5 t27 -193.5l547 879q-37 68 -103.5 101.5t-161.5 33.5q-92 0 -148 -39t-96 -119.5t-56.5 -192.5t-16.5 -241zM367 285q74 -168 262 -168q106 0 175.5 46t102.5 146.5t43.5 228.5t10.5 261q0 242 -41 377z" />
<glyph unicode="&#xd9;" horiz-adv-x="1251" d="M166 371v1165h170v-1120q0 -143 61 -215q72 -84 230 -84q291 0 291 301v1118h169v-1161q0 -219 -141 -324q-119 -88 -317 -88q-227 0 -345 107.5t-118 300.5zM357 1964h223l182 -289h-137z" />
<glyph unicode="&#xda;" horiz-adv-x="1251" d="M166 371v1165h170v-1120q0 -143 61 -215q72 -84 230 -84q291 0 291 301v1118h169v-1161q0 -219 -141 -324q-119 -88 -317 -88q-227 0 -345 107.5t-118 300.5zM490 1675l182 289h223l-268 -289h-137z" />
<glyph unicode="&#xdb;" horiz-adv-x="1251" d="M166 371v1165h170v-1120q0 -143 61 -215q72 -84 230 -84q291 0 291 301v1118h169v-1161q0 -219 -141 -324q-119 -88 -317 -88q-227 0 -345 107.5t-118 300.5zM328 1675l203 289h190l205 -289h-164l-135 192l-135 -192h-164z" />
<glyph unicode="&#xdc;" horiz-adv-x="1251" d="M166 371v1165h170v-1120q0 -143 61 -215q72 -84 230 -84q291 0 291 301v1118h169v-1161q0 -219 -141 -324q-119 -88 -317 -88q-227 0 -345 107.5t-118 300.5zM391 1728v205h162v-205h-162zM699 1728v205h161v-205h-161z" />
<glyph unicode="&#xdd;" horiz-adv-x="1138" d="M23 1536h188l358 -770l361 770h188l-465 -940v-596h-170v596zM434 1675l182 289h223l-268 -289h-137z" />
<glyph unicode="&#xde;" horiz-adv-x="1138" d="M176 0v1536h170v-326h244q119 0 207 -23.5t151 -86.5q51 -51 83 -132.5t32 -183.5q0 -145 -49 -249.5t-156 -157.5q-55 -29 -150.5 -40t-218.5 -11h-143v-326h-170zM346 479h166q205 0 285 58q90 63 90 237q0 147 -74 215t-254 68h-213v-578z" />
<glyph unicode="&#xdf;" d="M145 0v1126q0 125 27 205t88 142q94 94 250 94q160 0 254 -104.5t94 -276.5q0 -117 -38 -188.5t-124 -112.5q109 -45 162 -146.5t53 -271.5q0 -225 -77.5 -351t-235.5 -126q-49 0 -84 6t-63 24v160q29 -27 64.5 -41t80.5 -14q86 0 121 104q27 78 26 224q0 119 -12 188.5 t-55 112.5q-31 31 -73 41t-130 10v137q117 0 173 54.5t56 177.5q0 131 -63 198q-55 57 -145 58q-57 0 -105 -35q-37 -27 -52 -59.5t-22.5 -80t-7.5 -98.5v-1157h-162z" />
<glyph unicode="&#xe0;" horiz-adv-x="909" d="M63 301q0 139 78 219q39 39 119 74l244 98q66 27 81 49.5t15 92.5q0 106 -31 147q-39 51 -147 51q-96 0 -132 -38t-36 -140v-23h-145v27q0 311 331 311q166 0 248 -86q68 -72 68 -194v-696q0 -33 7 -54.5t52 -21.5l39 2v-119q-18 -4 -33.5 -7t-40.5 -3q-86 0 -121.5 30.5 t-46.5 133.5q-37 -84 -107.5 -134.5t-154.5 -50.5q-145 0 -216 80t-71 252zM187 1567h223l182 -289h-137zM231 291q0 -184 154 -185q84 0 143.5 60.5t59.5 171.5v276q-10 -6 -53 -28q-29 -14 -72 -35l-123 -55q-109 -49 -109 -205z" />
<glyph unicode="&#xe1;" horiz-adv-x="909" d="M63 301q0 139 78 219q39 39 119 74l244 98q66 27 81 49.5t15 92.5q0 106 -31 147q-39 51 -147 51q-96 0 -132 -38t-36 -140v-23h-145v27q0 311 331 311q166 0 248 -86q68 -72 68 -194v-696q0 -33 7 -54.5t52 -21.5l39 2v-119q-18 -4 -33.5 -7t-40.5 -3q-86 0 -121.5 30.5 t-46.5 133.5q-37 -84 -107.5 -134.5t-154.5 -50.5q-145 0 -216 80t-71 252zM231 291q0 -184 154 -185q84 0 143.5 60.5t59.5 171.5v276q-10 -6 -53 -28q-29 -14 -72 -35l-123 -55q-109 -49 -109 -205zM320 1278l182 289h223l-268 -289h-137z" />
<glyph unicode="&#xe2;" horiz-adv-x="909" d="M63 301q0 139 78 219q39 39 119 74l244 98q66 27 81 49.5t15 92.5q0 106 -31 147q-39 51 -147 51q-96 0 -132 -38t-36 -140v-23h-145v27q0 311 331 311q166 0 248 -86q68 -72 68 -194v-696q0 -33 7 -54.5t52 -21.5l39 2v-119q-18 -4 -33.5 -7t-40.5 -3q-86 0 -121.5 30.5 t-46.5 133.5q-37 -84 -107.5 -134.5t-154.5 -50.5q-145 0 -216 80t-71 252zM158 1278l203 289h190l205 -289h-164l-135 192l-135 -192h-164zM231 291q0 -184 154 -185q84 0 143.5 60.5t59.5 171.5v276q-10 -6 -53 -28q-29 -14 -72 -35l-123 -55q-109 -49 -109 -205z" />
<glyph unicode="&#xe3;" horiz-adv-x="909" d="M63 301q0 139 78 219q39 39 119 74l244 98q66 27 81 49.5t15 92.5q0 106 -31 147q-39 51 -147 51q-96 0 -132 -38t-36 -140v-23h-145v27q0 311 331 311q166 0 248 -86q68 -72 68 -194v-696q0 -33 7 -54.5t52 -21.5l39 2v-119q-18 -4 -33.5 -7t-40.5 -3q-86 0 -121.5 30.5 t-46.5 133.5q-37 -84 -107.5 -134.5t-154.5 -50.5q-145 0 -216 80t-71 252zM109 1296q10 102 65.5 163t139.5 61q47 0 190 -52q74 -27 109 -26q33 0 61.5 28.5t32.5 63.5h98q0 -88 -53 -152q-59 -72 -152 -71q-49 0 -190 51q-74 27 -105 27q-37 0 -63.5 -25t-34.5 -68h-98z M231 291q0 -184 154 -185q84 0 143.5 60.5t59.5 171.5v276q-10 -6 -53 -28q-29 -14 -72 -35l-123 -55q-109 -49 -109 -205z" />
<glyph unicode="&#xe4;" horiz-adv-x="909" d="M63 301q0 139 78 219q39 39 119 74l244 98q66 27 81 49.5t15 92.5q0 106 -31 147q-39 51 -147 51q-96 0 -132 -38t-36 -140v-23h-145v27q0 311 331 311q166 0 248 -86q68 -72 68 -194v-696q0 -33 7 -54.5t52 -21.5l39 2v-119q-18 -4 -33.5 -7t-40.5 -3q-86 0 -121.5 30.5 t-46.5 133.5q-37 -84 -107.5 -134.5t-154.5 -50.5q-145 0 -216 80t-71 252zM221 1331v205h162v-205h-162zM231 291q0 -184 154 -185q84 0 143.5 60.5t59.5 171.5v276q-10 -6 -53 -28q-29 -14 -72 -35l-123 -55q-109 -49 -109 -205zM529 1331v205h161v-205h-161z" />
<glyph unicode="&#xe5;" horiz-adv-x="909" d="M63 301q0 139 78 219q39 39 119 74l244 98q66 27 81 49.5t15 92.5q0 106 -31 147q-39 51 -147 51q-96 0 -132 -38t-36 -140v-23h-145v27q0 311 331 311q166 0 248 -86q68 -72 68 -194v-696q0 -33 7 -54.5t52 -21.5l39 2v-119q-18 -4 -33.5 -7t-40.5 -3q-86 0 -121.5 30.5 t-46.5 133.5q-37 -84 -107.5 -134.5t-154.5 -50.5q-145 0 -216 80t-71 252zM231 291q0 -184 154 -185q84 0 143.5 60.5t59.5 171.5v276q-10 -6 -53 -28q-29 -14 -72 -35l-123 -55q-109 -49 -109 -205zM246 1423q0 84 63.5 145.5t145.5 61.5q86 0 147.5 -59.5t61.5 -147.5 q0 -86 -61.5 -147.5t-145.5 -61.5q-88 0 -149.5 61.5t-61.5 147.5zM328 1423q0 -51 38 -89t91 -38q47 0 86 39t39 88t-38 87t-89 38q-49 0 -88 -39t-39 -86z" />
<glyph unicode="&#xe6;" horiz-adv-x="1366" d="M53 276q0 119 39 192t127 116q41 20 125 51q176 66 182 67q45 23 61.5 54.5t16.5 87.5q0 184 -174 184q-176 0 -176 -184v-17h-154q0 162 84 252t238 90q84 0 153.5 -31.5t114.5 -97.5q45 59 107.5 92t144.5 33q188 0 272 -141q76 -127 76 -373v-98h-532v-139 q0 -70 11 -134.5t36.5 -119t136.5 -54.5q88 0 137 62.5t49 202.5h150q0 -193 -89 -297.5t-243 -104.5q-111 0 -178.5 45t-110.5 142q-57 -96 -137 -141.5t-188 -45.5q-129 0 -204 81t-75 226zM221 285q0 -84 38 -131.5t122 -47.5q66 0 113 27t71 76q14 31 19.5 64.5 t5.5 99.5v239l-217 -102q-76 -37 -114 -89t-38 -136zM758 686h364v47q0 133 -39 209q-45 86 -133 86q-119 0 -162 -100q-31 -72 -30 -242z" />
<glyph unicode="&#xe7;" horiz-adv-x="909" d="M90 557q0 348 115 492q96 121 276 120q166 0 256 -112q84 -104 84 -277h-151q0 252 -189 252q-143 0 -192 -172q-31 -106 -31 -311q0 -190 29 -283q49 -160 188 -160q102 0 151.5 68t49.5 223h153q0 -174 -67 -284q-88 -143 -277 -144q-246 0 -335 201q-59 131 -60 387z M250 -416l35 82q33 -12 68.5 -21.5t70.5 -9.5q51 0 82 26t31 52q0 37 -27.5 62.5t-72.5 25.5q-18 0 -29 -2q-2 0 -51 -14l-35 39l129 176h98l-94 -127q18 6 49 6q86 0 136 -39.5t50 -109.5q0 -94 -75 -146q-66 -43 -172 -43q-55 0 -121 19q-31 8 -72 24z" />
<glyph unicode="&#xe8;" horiz-adv-x="909" d="M88 571q0 254 78 410q94 188 287 188q190 0 274 -122q78 -115 78 -353l4 -139h-553q0 -63 2 -146t23 -157q39 -145 178 -146q96 0 143 62.5t47 161.5v49h152v-33q0 -160 -82 -262q-92 -115 -258 -115q-188 0 -280.5 144.5t-92.5 457.5zM187 1567h223l182 -289h-137z M256 688h385l-4 88q0 119 -39 182q-45 74 -143 74q-121 0 -166 -110q-33 -80 -33 -234z" />
<glyph unicode="&#xe9;" horiz-adv-x="909" d="M88 571q0 254 78 410q94 188 287 188q190 0 274 -122q78 -115 78 -353l4 -139h-553q0 -63 2 -146t23 -157q39 -145 178 -146q96 0 143 62.5t47 161.5v49h152v-33q0 -160 -82 -262q-92 -115 -258 -115q-188 0 -280.5 144.5t-92.5 457.5zM256 688h385l-4 88q0 119 -39 182 q-45 74 -143 74q-121 0 -166 -110q-33 -80 -33 -234zM320 1278l182 289h223l-268 -289h-137z" />
<glyph unicode="&#xea;" horiz-adv-x="909" d="M88 571q0 254 78 410q94 188 287 188q190 0 274 -122q78 -115 78 -353l4 -139h-553q0 -63 2 -146t23 -157q39 -145 178 -146q96 0 143 62.5t47 161.5v49h152v-33q0 -160 -82 -262q-92 -115 -258 -115q-188 0 -280.5 144.5t-92.5 457.5zM158 1278l203 289h190l205 -289 h-164l-135 192l-135 -192h-164zM256 688h385l-4 88q0 119 -39 182q-45 74 -143 74q-121 0 -166 -110q-33 -80 -33 -234z" />
<glyph unicode="&#xeb;" horiz-adv-x="909" d="M88 571q0 254 78 410q94 188 287 188q190 0 274 -122q78 -115 78 -353l4 -139h-553q0 -63 2 -146t23 -157q39 -145 178 -146q96 0 143 62.5t47 161.5v49h152v-33q0 -160 -82 -262q-92 -115 -258 -115q-188 0 -280.5 144.5t-92.5 457.5zM221 1331v205h162v-205h-162z M256 688h385l-4 88q0 119 -39 182q-45 74 -143 74q-121 0 -166 -110q-33 -80 -33 -234zM529 1331v205h161v-205h-161z" />
<glyph unicode="&#xec;" horiz-adv-x="454" d="M-41 1567h223l182 -289h-137zM147 0v1139h162v-1139h-162z" />
<glyph unicode="&#xed;" horiz-adv-x="454" d="M92 1278l182 289h223l-268 -289h-137zM147 0v1139h162v-1139h-162z" />
<glyph unicode="&#xee;" horiz-adv-x="454" d="M-70 1278l203 289h190l205 -289h-164l-135 192l-135 -192h-164zM147 0v1139h162v-1139h-162z" />
<glyph unicode="&#xef;" horiz-adv-x="454" d="M-7 1331v205h162v-205h-162zM147 0v1139h162v-1139h-162zM301 1331v205h161v-205h-161z" />
<glyph unicode="&#xf0;" d="M86 600q0 100 17.5 202.5t50.5 168.5q45 88 133 143t207 55q109 0 190 -47q-18 82 -32.5 123t-47.5 88l-135 -102l-78 94l109 82q-41 14 -124 21.5t-167 7.5v100q338 0 407 -43l113 84l78 -94l-88 -66q84 -96 130 -261t46 -355l6 -180q0 -307 -76 -461 q-94 -190 -317 -191q-133 0 -214 48.5t-125 136.5t-63.5 199.5t-19.5 246.5zM254 561q0 -217 43 -319q57 -135 199 -136q129 0 183 112t54 341q0 219 -39 326q-53 147 -194 147q-121 0 -178 -90q-68 -109 -68 -381z" />
<glyph unicode="&#xf1;" d="M150 0v1139h157v-125q63 74 119 108q76 47 168 47q150 0 223 -90q59 -74 60 -192v-887h-162v836q0 111 -49 157q-41 39 -119 39q-98 0 -170 -71q-35 -35 -50.5 -80t-15.5 -115v-766h-161zM166 1296q10 102 65.5 163t139.5 61q47 0 190 -52q74 -27 109 -26q33 0 61.5 28.5 t32.5 63.5h98q0 -88 -53 -152q-59 -72 -152 -71q-49 0 -190 51q-74 27 -105 27q-37 0 -63.5 -25t-34.5 -68h-98z" />
<glyph unicode="&#xf2;" d="M104 604q0 262 93 406q102 160 317 159q186 0 291 -131q115 -145 115 -434q0 -295 -78 -446q-96 -188 -324 -189q-190 0 -289 119q-125 152 -125 516zM244 1567h223l182 -289h-137zM272 555q0 -227 55.5 -338t184.5 -111t184.5 108t55.5 333q0 260 -54.5 372.5 t-187.5 112.5q-139 0 -195 -141q-43 -111 -43 -336z" />
<glyph unicode="&#xf3;" d="M104 604q0 262 93 406q102 160 317 159q186 0 291 -131q115 -145 115 -434q0 -295 -78 -446q-96 -188 -324 -189q-190 0 -289 119q-125 152 -125 516zM272 555q0 -227 55.5 -338t184.5 -111t184.5 108t55.5 333q0 260 -54.5 372.5t-187.5 112.5q-139 0 -195 -141 q-43 -111 -43 -336zM377 1278l182 289h223l-268 -289h-137z" />
<glyph unicode="&#xf4;" d="M104 604q0 262 93 406q102 160 317 159q186 0 291 -131q115 -145 115 -434q0 -295 -78 -446q-96 -188 -324 -189q-190 0 -289 119q-125 152 -125 516zM215 1278l203 289h190l205 -289h-164l-135 192l-135 -192h-164zM272 555q0 -227 55.5 -338t184.5 -111t184.5 108 t55.5 333q0 260 -54.5 372.5t-187.5 112.5q-139 0 -195 -141q-43 -111 -43 -336z" />
<glyph unicode="&#xf5;" d="M104 604q0 262 93 406q102 160 317 159q186 0 291 -131q115 -145 115 -434q0 -295 -78 -446q-96 -188 -324 -189q-190 0 -289 119q-125 152 -125 516zM166 1296q10 102 65.5 163t139.5 61q47 0 190 -52q74 -27 109 -26q33 0 61.5 28.5t32.5 63.5h98q0 -88 -53 -152 q-59 -72 -152 -71q-49 0 -190 51q-74 27 -105 27q-37 0 -63.5 -25t-34.5 -68h-98zM272 555q0 -227 55.5 -338t184.5 -111t184.5 108t55.5 333q0 260 -54.5 372.5t-187.5 112.5q-139 0 -195 -141q-43 -111 -43 -336z" />
<glyph unicode="&#xf6;" d="M104 604q0 262 93 406q102 160 317 159q186 0 291 -131q115 -145 115 -434q0 -295 -78 -446q-96 -188 -324 -189q-190 0 -289 119q-125 152 -125 516zM272 555q0 -227 55.5 -338t184.5 -111t184.5 108t55.5 333q0 260 -54.5 372.5t-187.5 112.5q-139 0 -195 -141 q-43 -111 -43 -336zM278 1331v205h162v-205h-162zM586 1331v205h161v-205h-161z" />
<glyph unicode="&#xf7;" d="M90 449v143h846v-143h-846zM430 6v205h162v-205h-162zM430 829v205h162v-205h-162z" />
<glyph unicode="&#xf8;" d="M51 -55l139 202q-43 70 -64.5 194t-21.5 265q0 266 95 408q102 156 315 155q100 0 172 -34.5t119 -94.5l104 152l58 -47l-117 -170q29 -53 49.5 -151.5t20.5 -209.5q0 -342 -107 -501q-96 -143 -285 -144q-98 0 -169.5 25.5t-122.5 87.5l-121 -176zM272 557 q0 -63 8.5 -130t20.5 -118l404 586q-27 70 -75 103.5t-118 33.5q-127 0 -183.5 -112.5t-56.5 -362.5zM332 221q23 -49 66.5 -82t111.5 -33q139 0 195 125q47 105 47 330q0 137 -23 240z" />
<glyph unicode="&#xf9;" d="M158 264v875h161v-881q0 -84 31 -118t121 -34q94 0 165 71t71 229v733h161v-1139h-161v150q-41 -78 -113 -129.5t-162 -51.5q-162 0 -229 107q-45 72 -45 188zM244 1567h223l182 -289h-137z" />
<glyph unicode="&#xfa;" d="M158 264v875h161v-881q0 -84 31 -118t121 -34q94 0 165 71t71 229v733h161v-1139h-161v150q-41 -78 -113 -129.5t-162 -51.5q-162 0 -229 107q-45 72 -45 188zM377 1278l182 289h223l-268 -289h-137z" />
<glyph unicode="&#xfb;" d="M158 264v875h161v-881q0 -84 31 -118t121 -34q94 0 165 71t71 229v733h161v-1139h-161v150q-41 -78 -113 -129.5t-162 -51.5q-162 0 -229 107q-45 72 -45 188zM215 1278l203 289h190l205 -289h-164l-135 192l-135 -192h-164z" />
<glyph unicode="&#xfc;" d="M158 264v875h161v-881q0 -84 31 -118t121 -34q94 0 165 71t71 229v733h161v-1139h-161v150q-41 -78 -113 -129.5t-162 -51.5q-162 0 -229 107q-45 72 -45 188zM278 1331v205h162v-205h-162zM586 1331v205h161v-205h-161z" />
<glyph unicode="&#xfd;" horiz-adv-x="909" d="M10 1139h168l256 -987l268 987h168l-366 -1180q-57 -182 -111 -250q-78 -98 -225 -98q-49 0 -117 18v144q53 -25 121 -25q63 0 102 29.5t62 91.5l37 104zM320 1278l182 289h223l-268 -289h-137z" />
<glyph unicode="&#xfe;" d="M147 -385v1921h156v-524q37 80 117 123q63 35 127 34q182 0 280 -159q88 -144 88 -373q0 -293 -67 -455q-88 -213 -295 -213q-82 0 -135 34t-109 116v-504h-162zM309 549q0 -209 33 -301q49 -141 188 -142q100 0 154 93q64 113 64 389q0 195 -43 305q-55 139 -181 139 q-139 0 -186 -172q-29 -102 -29 -311z" />
<glyph unicode="&#xff;" horiz-adv-x="909" d="M10 1139h168l256 -987l268 987h168l-366 -1180q-57 -182 -111 -250q-78 -98 -225 -98q-49 0 -117 18v144q53 -25 121 -25q63 0 102 29.5t62 91.5l37 104zM221 1331v205h162v-205h-162zM529 1331v205h161v-205h-161z" />
<glyph unicode="&#x152;" horiz-adv-x="1705" d="M115 741q0 223 20.5 350.5t76.5 239t154.5 174t223.5 62.5q178 0 295 -162l4 131h723v-154h-563v-503h526v-154h-526v-571h559v-154h-719v121q-80 -84 -117 -109q-76 -49 -186 -49q-131 0 -223.5 62.5t-155.5 187.5q-45 92 -68.5 231.5t-23.5 296.5zM291 717 q0 -262 53 -404q74 -197 254 -196q145 0 213 94q61 86 61 258v639q0 150 -67.5 227.5t-190.5 77.5q-115 0 -186 -63q-86 -76 -109 -234q-14 -109 -21 -192.5t-7 -206.5z" />
<glyph unicode="&#x153;" horiz-adv-x="1478" d="M82 594q0 248 65 385q92 190 308 190q100 0 183 -42t128 -117q41 74 107.5 116.5t154.5 42.5q197 0 287 -157q69 -123 69 -324l-4 -127h-532l2 -110q0 -160 27 -230q45 -115 167 -115q86 0 128 66t55 205h153q0 -182 -90 -295t-241 -113q-197 0 -289 164 q-49 -80 -122 -122t-167 -42q-186 0 -278 113q-111 135 -111 512zM250 543q0 -199 29 -287q49 -150 192 -150q131 0 176 121q35 94 35 348q0 256 -43 356.5t-158 100.5q-150 0 -200 -164q-31 -100 -31 -325zM848 694h379q0 100 -7.5 158.5t-29.5 99.5q-41 80 -143 80 q-55 0 -93.5 -22.5t-64.5 -73.5q-41 -82 -41 -242z" />
<glyph unicode="&#x178;" horiz-adv-x="1138" d="M23 1536h188l358 -770l361 770h188l-465 -940v-596h-170v596zM335 1728v205h162v-205h-162zM643 1728v205h161v-205h-161z" />
<glyph unicode="&#x2c6;" horiz-adv-x="681" d="M43 1278l203 289h190l205 -289h-164l-135 192l-135 -192h-164z" />
<glyph unicode="&#x2dc;" horiz-adv-x="681" d="M-6 1296q10 102 65.5 163t139.5 61q47 0 190 -52q74 -27 109 -26q33 0 61.5 28.5t32.5 63.5h98q0 -88 -53 -152q-59 -72 -152 -71q-49 0 -190 51q-74 27 -105 27q-37 0 -63.5 -25t-34.5 -68h-98z" />
<glyph unicode="&#x2000;" horiz-adv-x="1013" />
<glyph unicode="&#x2001;" horiz-adv-x="2027" />
<glyph unicode="&#x2002;" horiz-adv-x="1013" />
<glyph unicode="&#x2003;" horiz-adv-x="2027" />
<glyph unicode="&#x2004;" horiz-adv-x="675" />
<glyph unicode="&#x2005;" horiz-adv-x="506" />
<glyph unicode="&#x2006;" horiz-adv-x="337" />
<glyph unicode="&#x2007;" horiz-adv-x="337" />
<glyph unicode="&#x2008;" horiz-adv-x="253" />
<glyph unicode="&#x2009;" horiz-adv-x="405" />
<glyph unicode="&#x200a;" horiz-adv-x="112" />
<glyph unicode="&#x2010;" horiz-adv-x="681" d="M92 563v170h498v-170h-498z" />
<glyph unicode="&#x2011;" horiz-adv-x="681" d="M92 563v170h498v-170h-498z" />
<glyph unicode="&#x2012;" horiz-adv-x="681" d="M92 563v170h498v-170h-498z" />
<glyph unicode="&#x2013;" d="M0 563v144h1024v-144h-1024z" />
<glyph unicode="&#x2014;" horiz-adv-x="2048" d="M0 563v144h2048v-144h-2048z" />
<glyph unicode="&#x2018;" horiz-adv-x="454" d="M131 1067v195q0 104 29 170q45 104 164 139v-92q-53 -12 -77 -68.5t-24 -140.5h101v-203h-193z" />
<glyph unicode="&#x2019;" horiz-adv-x="454" d="M131 1032v92q53 12 76.5 68.5t23.5 140.5h-100v203h193v-195q0 -104 -29 -170q-45 -104 -164 -139z" />
<glyph unicode="&#x201a;" horiz-adv-x="454" d="M131 2v203h193v-195q0 -104 -29 -170q-45 -104 -164 -139v92q53 12 76.5 68.5t23.5 140.5h-100z" />
<glyph unicode="&#x201c;" horiz-adv-x="796" d="M127 1067v195q0 104 29 170q45 104 163 139v-92q-53 -12 -76.5 -68.5t-23.5 -140.5h100v-203h-192zM477 1067v195q0 104 29 170q45 104 164 139v-92q-53 -12 -77 -68.5t-24 -140.5h101v-203h-193z" />
<glyph unicode="&#x201d;" horiz-adv-x="796" d="M127 1032v92q53 12 76.5 68.5t23.5 140.5h-100v203h192v-195q0 -104 -28 -170q-45 -104 -164 -139zM477 1032v92q53 12 77 68.5t24 140.5h-101v203h193v-195q0 -104 -29 -170q-45 -104 -164 -139z" />
<glyph unicode="&#x201e;" horiz-adv-x="796" d="M127 2v203h192v-195q0 -104 -28 -170q-45 -104 -164 -139v92q53 12 76.5 68.5t23.5 140.5h-100zM477 2v203h193v-195q0 -104 -29 -170q-45 -104 -164 -139v92q53 12 77 68.5t24 140.5h-101z" />
<glyph unicode="&#x2022;" horiz-adv-x="681" d="M31 768q0 129 91 222t220 93q125 0 217 -92t92 -225q0 -127 -92 -219t-219 -92q-129 0 -219 94t-90 219z" />
<glyph unicode="&#x2026;" horiz-adv-x="2048" d="M248 0v205h186v-205h-186zM930 0v205h186v-205h-186zM1612 0v205h186v-205h-186z" />
<glyph unicode="&#x202f;" horiz-adv-x="405" />
<glyph unicode="&#x2039;" horiz-adv-x="569" d="M131 575v125l309 314v-170l-204 -209l204 -209v-170z" />
<glyph unicode="&#x203a;" horiz-adv-x="569" d="M129 256v170l205 209l-205 209v170l309 -320v-125z" />
<glyph unicode="&#x205f;" horiz-adv-x="506" />
<glyph unicode="&#x2122;" horiz-adv-x="1536" d="M0 1413v123h573v-123h-223v-739h-125v739h-225zM696 674v862h183l202 -608l211 608h181v-862h-113v739l-246 -739h-65l-236 739l-4 -739h-113z" />
<glyph unicode="&#x25fc;" horiz-adv-x="1136" d="M0 0v1137h1137v-1137h-1137z" />
</font>
</defs>
</svg>
